<svg xmlns="http://www.w3.org/2000/svg" viewBox="0 0 63.74 63.74"><defs><style>.cls-1{fill:#7175e1;}.cls-2{fill:#fff;}</style></defs><title>much3</title><g id="Layer_2" data-name="Layer 2"><g id="Layer_1-2" data-name="Layer 1"><circle class="cls-1" cx="31.87" cy="31.87" r="31.87"/><path class="cls-2" d="M48,10.43H31a1.34,1.34,0,0,0-.93.38L9.46,31.42a4.83,4.83,0,0,0,0,6.81L25,53.76a4.81,4.81,0,0,0,3.4,1.4h0a4.82,4.82,0,0,0,3.41-1.4L52.41,33.15a1.34,1.34,0,0,0,.38-.93v-17A4.82,4.82,0,0,0,48,10.43Zm2.19,21.25L30,51.9a2.22,2.22,0,0,1-1.56.64,2.2,2.2,0,0,1-1.55-.64L11.32,36.38a2.2,2.2,0,0,1,0-3.11L31.54,13.05H48a2.19,2.19,0,0,1,2.19,2.19Z"/><path class="cls-2" d="M41.24,17.86a4.13,4.13,0,1,0,2.91,1.21,4.09,4.09,0,0,0-2.91-1.21ZM42.3,23a1.5,1.5,0,1,1-1.06-2.56,1.52,1.52,0,0,1,1.06.44,1.5,1.5,0,0,1,0,2.12Z"/><path class="cls-2" d="M23.16,38.63a1.85,1.85,0,0,1,.5,1.09,1.56,1.56,0,0,1-.15.78,2.69,2.69,0,0,1-.6.86l-.62.61,1.58,1.58-1,1-4.05-4.05,1.6-1.6a2.2,2.2,0,0,1,1.46-.74A1.68,1.68,0,0,1,23.16,38.63Zm-1.62,2.59.61-.61a.66.66,0,0,0,.23-.49.76.76,0,0,0-.71-.7.61.61,0,0,0-.49.21l-.61.61Z"/><path class="cls-2" d="M26,38.28l1.57,1.58-1,1-4.06-4.06,1.6-1.6a2.2,2.2,0,0,1,1.46-.73,1.6,1.6,0,0,1,1.27.49,1.71,1.71,0,0,1,.48.9A1.67,1.67,0,0,1,27.09,37l2.65.66-1.16,1.15-2.49-.66Zm-1.73-1.72,1,1,.61-.61a.71.71,0,0,0-.49-1.19.7.7,0,0,0-.49.21Z"/><path class="cls-2" d="M30.43,37l-4.06-4.06,1-1L31.41,36Z"/><path class="cls-2" d="M32.09,34.22a3,3,0,0,1-3-3A2.88,2.88,0,0,1,30,29.18a2.93,2.93,0,0,1,1.56-.84,2.63,2.63,0,0,1,1.73.26l-1.18,1.18a1.09,1.09,0,0,0-1.19.29,1.48,1.48,0,0,0-.48,1.12A1.77,1.77,0,0,0,31,32.33a1.72,1.72,0,0,0,1.14.56,1.49,1.49,0,0,0,1.12-.49,1.09,1.09,0,0,0,.29-1.18L34.74,30A2.62,2.62,0,0,1,35,31.77a2.93,2.93,0,0,1-.84,1.56A2.89,2.89,0,0,1,32.09,34.22Z"/><path class="cls-2" d="M35.08,24.2l.75.75-1.47,1.47.88.87L36.53,26l.75.75L36,28l.94.94,1.47-1.46.75.75-2.46,2.45-4.06-4.06Z"/></g></g></svg>