<svg xmlns="http://www.w3.org/2000/svg" viewBox="0 0 63.74 63.74"><defs><style>.cls-1{fill:#f74169;}.cls-2{fill:#fff;}</style></defs><title>much2</title><g id="Layer_2" data-name="Layer 2"><g id="Layer_1-2" data-name="Layer 1"><circle class="cls-1" cx="31.87" cy="31.87" r="31.87"/><path class="cls-2" d="M28.41,13.85A14.56,14.56,0,1,0,43,28.41,14.56,14.56,0,0,0,28.41,13.85Zm0,1.38a13.17,13.17,0,0,1,10.76,5.6l-1.73,1.73a2.76,2.76,0,0,0-4.17,2.38,2.67,2.67,0,0,0,.39,1.4l-4.54,4.54a2.66,2.66,0,0,0-2.8,0l-3.15-3.15a2.77,2.77,0,1,0-5.06-2.1H15.54A13.19,13.19,0,0,1,28.41,15.23Zm6.24,9.71A1.39,1.39,0,1,1,36,26.33,1.39,1.39,0,0,1,34.65,24.94Zm-6.93,6.93a1.39,1.39,0,1,1-1.39,1.39A1.39,1.39,0,0,1,27.72,31.87Zm-6.93-4.16a1.39,1.39,0,1,1,1.38-1.38A1.38,1.38,0,0,1,20.79,27.71Zm7.62,13.87A13.2,13.2,0,0,1,15.31,27h2.8a2.75,2.75,0,0,0,4.08,1.69l3.15,3.15a2.64,2.64,0,0,0-.39,1.4,2.77,2.77,0,0,0,5.54,0,2.73,2.73,0,0,0-.39-1.4l4.54-4.54a2.73,2.73,0,0,0,1.4.39,2.76,2.76,0,0,0,2.38-4.17L39.93,22A13.17,13.17,0,0,1,28.41,41.58Z"/><path class="cls-2" d="M45.74,12.46A2.77,2.77,0,0,0,43,15.23a2.73,2.73,0,0,0,.39,1.4l-1.21,1.22A17.33,17.33,0,1,0,37.82,43L39.91,45l1,1,5.58,5.58a3.63,3.63,0,0,0,5.14-5.14L46,40.89l-1-1L43,37.81A17.29,17.29,0,0,0,43,19l1.39-1.39a2.73,2.73,0,0,0,1.39.4,2.78,2.78,0,0,0,2.68-2.08h4.26V14.54H48.42A2.77,2.77,0,0,0,45.74,12.46Zm4.89,35a2.25,2.25,0,1,1-3.14,3.21l0,0L41.87,45l3.18-3.17ZM42.15,39l1.92,1.92-3.18,3.17L39,42.15l.29-.24.31-.25.45-.39.22-.21c.28-.27.56-.54.83-.83l.2-.22q.21-.23.39-.45l.26-.31Zm-.77-1.31c-.22.31-.44.61-.68.9l-.21.24-.66.72-.3.3q-.35.34-.72.66l-.25.21c-.28.24-.58.47-.89.69a16,16,0,1,1,3.71-3.72Zm4.36-21a1.39,1.39,0,1,1,1.39-1.39A1.38,1.38,0,0,1,45.74,16.62Z"/></g></g></svg>