<svg xmlns="http://www.w3.org/2000/svg" viewBox="0 0 63.74 63.74"><defs><style>.cls-1{fill:#7175e1;}.cls-2{fill:#fff;}</style></defs><title>much1</title><g id="Layer_2" data-name="Layer 2"><g id="Layer_1-2" data-name="Layer 1"><circle class="cls-1" cx="31.87" cy="31.87" r="31.87"/><rect class="cls-2" x="31.22" y="16.92" width="1.3" height="3.25"/><rect class="cls-2" x="18.22" y="37.1" width="5.54" height="1.3" transform="translate(-15.55 14.71) rotate(-28.69)"/><rect class="cls-2" x="39.98" y="25.33" width="5.54" height="1.3" transform="translate(-7.23 23.74) rotate(-28.72)"/><rect class="cls-2" x="20.34" y="23.22" width="1.3" height="5.54" transform="translate(-11.89 31.9) rotate(-61.27)"/><rect class="cls-2" x="42.1" y="34.98" width="1.3" height="5.55" transform="translate(-10.9 57.1) rotate(-61.27)"/><rect class="cls-2" x="31.22" y="43.57" width="1.3" height="3.25"/><path class="cls-2" d="M31.87,42.27a10.4,10.4,0,1,1,10.4-10.4A10.42,10.42,0,0,1,31.87,42.27Zm0-19.5a9.1,9.1,0,1,0,9.1,9.1A9.11,9.11,0,0,0,31.87,22.77Z"/><path class="cls-2" d="M31.87,37.72C29,37.72,26,37.57,26,35.77h1.3s.05.65,4.55.65,4.55-.64,4.55-.65h1.3C37.72,37.57,34.7,37.72,31.87,37.72Z"/><polygon class="cls-2" points="37.72 35.77 36.42 35.77 36.42 34.19 33.36 32.33 32.71 31.68 33.63 30.76 34.22 31.35 37.72 33.45 37.72 35.77"/><polygon class="cls-2" points="27.32 35.77 26.02 35.77 26.02 33.45 29.52 31.35 30.11 30.76 31.03 31.68 30.25 32.43 27.32 34.19 27.32 35.77"/><path class="cls-2" d="M31.87,31.87a3.26,3.26,0,0,1-3.25-3.25V28a3.25,3.25,0,1,1,6.5,0v.65A3.26,3.26,0,0,1,31.87,31.87Zm0-5.85A2,2,0,0,0,29.92,28v.65a1.95,1.95,0,0,0,3.9,0V28A2,2,0,0,0,31.87,26Z"/><path class="cls-2" d="M45.39,21.73a16.84,16.84,0,0,0-11-6.58l.19-1.28A18.08,18.08,0,0,1,46.43,21Z"/><path class="cls-2" d="M34.56,49.87l-.19-1.28a16.84,16.84,0,0,0,11-6.58l1,.78A18.05,18.05,0,0,1,34.56,49.87Z"/><path class="cls-2" d="M14.77,38.11a18.25,18.25,0,0,1,0-12.48l1.22.45a16.94,16.94,0,0,0,0,11.58Z"/><path class="cls-2" d="M18.35,21.73l-1-.78a18.08,18.08,0,0,1,11.87-7.08l.19,1.28A16.84,16.84,0,0,0,18.35,21.73Z"/><path class="cls-2" d="M29.18,49.87a18.08,18.08,0,0,1-11.87-7.08l1-.78a16.84,16.84,0,0,0,11,6.58Z"/><path class="cls-2" d="M49,38.11l-1.22-.45a16.94,16.94,0,0,0,0-11.58L49,25.63a18.25,18.25,0,0,1,0,12.48Z"/><path class="cls-2" d="M31.87,17.57a3.25,3.25,0,1,1,3.25-3.25A3.26,3.26,0,0,1,31.87,17.57Zm0-5.2a2,2,0,1,0,1.95,2A2,2,0,0,0,31.87,12.37Z"/><rect class="cls-2" x="31.22" y="13.67" width="1.3" height="1.3"/><path class="cls-2" d="M16.27,26.67a3.25,3.25,0,1,1,3.25-3.25A3.26,3.26,0,0,1,16.27,26.67Zm0-5.2a2,2,0,1,0,1.95,2A2,2,0,0,0,16.27,21.47Z"/><rect class="cls-2" x="15.62" y="22.77" width="1.3" height="1.3"/><path class="cls-2" d="M47.47,26.67a3.25,3.25,0,1,1,3.25-3.25A3.26,3.26,0,0,1,47.47,26.67Zm0-5.2a2,2,0,1,0,2,2A2,2,0,0,0,47.47,21.47Z"/><rect class="cls-2" x="46.82" y="22.77" width="1.3" height="1.3"/><path class="cls-2" d="M16.27,43.57a3.25,3.25,0,1,1,3.25-3.25A3.26,3.26,0,0,1,16.27,43.57Zm0-5.2a2,2,0,1,0,1.95,2A2,2,0,0,0,16.27,38.37Z"/><rect class="cls-2" x="15.62" y="39.67" width="1.3" height="1.3"/><path class="cls-2" d="M47.47,43.57a3.25,3.25,0,1,1,3.25-3.25A3.26,3.26,0,0,1,47.47,43.57Zm0-5.2a2,2,0,1,0,2,2A2,2,0,0,0,47.47,38.37Z"/><rect class="cls-2" x="46.82" y="39.67" width="1.3" height="1.3"/><path class="cls-2" d="M31.87,52.67a3.25,3.25,0,1,1,3.25-3.25A3.26,3.26,0,0,1,31.87,52.67Zm0-5.2a2,2,0,1,0,1.95,2A2,2,0,0,0,31.87,47.47Z"/><rect class="cls-2" x="31.22" y="48.77" width="1.3" height="1.3"/></g></g></svg>