<svg xmlns="http://www.w3.org/2000/svg" viewBox="0 0 63.74 63.74"><defs><style>.cls-1{fill:#f74169;}.cls-2{fill:#fff;}</style></defs><title>much4</title><g id="Layer_2" data-name="Layer 2"><g id="Layer_1-2" data-name="Layer 1"><circle class="cls-1" cx="31.87" cy="31.87" r="31.87"/><path class="cls-2" d="M48.66,12.62H15.08a4.51,4.51,0,0,0-4.5,4.51V38.42a4.51,4.51,0,0,0,4.5,4.51H26l-1.31,6.55H20.4a.82.82,0,1,0,0,1.64H43.34a.82.82,0,1,0,0-1.64H39.09l-1.31-6.55H48.66a4.51,4.51,0,0,0,4.51-4.51V17.13A4.51,4.51,0,0,0,48.66,12.62ZM15.08,14.26H48.66a2.88,2.88,0,0,1,2.87,2.87V34.74H12.21V33.1h4.92a.82.82,0,0,0,0-1.64H12.21V17.13A2.88,2.88,0,0,1,15.08,14.26ZM37.42,49.48H26.32l1.31-6.55h8.48ZM51.53,38.42a2.88,2.88,0,0,1-2.87,2.87H15.08a2.88,2.88,0,0,1-2.87-2.87v-2H51.53Z"/><path class="cls-2" d="M31.87,40.47a1.64,1.64,0,1,0-1.64-1.64A1.64,1.64,0,0,0,31.87,40.47Z"/><path class="cls-2" d="M31.12,30.52a.79.79,0,0,0,.57.6.81.81,0,0,0,.81-.2l1.44-1.45,1.74,1.73a.82.82,0,0,0,1.16,0l1.74-1.73a.82.82,0,0,0,0-1.16l-1.74-1.74,1.45-1.45a.82.82,0,0,0-.4-1.37L30.36,22a.82.82,0,0,0-1,1Zm5-5.51-1,1a.82.82,0,0,0,0,1.16l1.74,1.74-.58.58-1.74-1.74a.82.82,0,0,0-1.16,0l-1,1L31.27,23.9Z"/><path class="cls-2" d="M27.34,21.13A.82.82,0,0,0,28.5,20l-.82-.82a.82.82,0,0,0-1.16,1.16Z"/><path class="cls-2" d="M25.74,23.82H26.9a.82.82,0,1,0,0-1.63H25.74a.82.82,0,1,0,0,1.63Z"/><path class="cls-2" d="M27.34,24.88l-.82.82a.82.82,0,0,0,1.16,1.16L28.5,26a.82.82,0,0,0-1.16-1.16Z"/><path class="cls-2" d="M32.83,21.37a.82.82,0,0,0,.58-.24l.82-.82a.82.82,0,1,0-1.16-1.16l-.81.82a.82.82,0,0,0,0,1.16A.8.8,0,0,0,32.83,21.37Z"/><path class="cls-2" d="M30.38,20.35a.82.82,0,0,0,.82-.82V18.37a.82.82,0,0,0-1.64,0v1.16A.82.82,0,0,0,30.38,20.35Z"/><path class="cls-2" d="M18.83,32.59a.61.61,0,0,0,.07.14.69.69,0,0,0,.11.13.58.58,0,0,0,.12.1l.14.08.15,0,.16,0,.16,0,.16,0L20,33a.58.58,0,0,0,.12-.1.69.69,0,0,0,.11-.13l.07-.14a.88.88,0,0,0,.05-.15,1.29,1.29,0,0,0,0-.32.88.88,0,0,0-.05-.15l-.07-.14a.69.69,0,0,0-.11-.13.58.58,0,0,0-.12-.1l-.14-.08-.16,0a.86.86,0,0,0-.32,0l-.15,0-.14.08a.58.58,0,0,0-.12.1.69.69,0,0,0-.11.13.61.61,0,0,0-.07.14.88.88,0,0,0,0,.15,1.28,1.28,0,0,0,0,.32A.88.88,0,0,0,18.83,32.59Z"/></g></g></svg>