<svg xmlns="http://www.w3.org/2000/svg" xmlns:xlink="http://www.w3.org/1999/xlink" viewBox="0 0 77.62 92.94"><defs><style>.cls-1{fill:none;}.cls-2{fill:#be1e2d;}.cls-3{clip-path:url(#clip-path);}.cls-4{fill:#abb7b7;}.cls-5{fill:#e9e9e9;}</style><clipPath id="clip-path" transform="translate(0 0)"><rect id="SVGID" class="cls-1" x="8.28" width="61.07" height="85.2"/></clipPath></defs><title>step2</title><g id="Layer_2" data-name="Layer 2"><g id="Layer_1-2" data-name="Layer 1"><ellipse class="cls-2" cx="38.81" cy="85.19" rx="38.81" ry="7.76"/><g class="cls-3"><path class="cls-4" d="M48.18,3.81h0l-.09-.05L42.36.46a3.39,3.39,0,0,0-3.7.19l-25,14.54c-3,1.73-5.4,6.35-5.4,10.33V67.33c0,2.14.69,3.65,1.8,4.33L15.84,75a2.7,2.7,0,0,0,.64.36h0a3.64,3.64,0,0,0,3.2-.45l25-14.54c3-1.73,5.4-6.35,5.4-10.33V8.19c0-2.19-.73-3.72-1.88-4.38Z" transform="translate(0 0)"/><path class="cls-5" d="M44.66,4.1l-25,14.55c-3,1.72-5.41,6.34-5.41,10.32V70.79c0,4,2.42,5.81,5.41,4.08l25-14.54c3-1.73,5.4-6.35,5.4-10.33V8.19c0-4-2.42-5.81-5.4-4.09Z" transform="translate(0 0)"/><path class="cls-4" d="M67.44,13.49h0l-.08-.05-5.74-3.3a3.4,3.4,0,0,0-3.7.18l-25,14.55c-3,1.72-5.4,6.34-5.4,10.32V77c0,2.13.7,3.65,1.8,4.33l5.76,3.29a2.8,2.8,0,0,0,.65.37h0a3.62,3.62,0,0,0,3.19-.45L63.92,70c3-1.72,5.4-6.34,5.4-10.32V17.86c0-2.18-.73-3.72-1.88-4.37Z" transform="translate(0 0)"/><path class="cls-5" d="M63.92,13.78l-25,14.54c-3,1.73-5.4,6.35-5.4,10.33V80.47c0,4,2.42,5.8,5.4,4.08L63.92,70c3-1.72,5.4-6.34,5.4-10.32V17.86c0-4-2.41-5.8-5.4-4.08Z" transform="translate(0 0)"/></g><path class="cls-4" d="M62.94,31.48,41.32,44.07c-1.38.8-2.5,0-2.5-1.9a6,6,0,0,1,2.5-4.79L62.94,24.8c1.38-.8,2.5.05,2.5,1.89a6,6,0,0,1-2.5,4.79Z" transform="translate(0 0)"/><path class="cls-4" d="M62.94,46.94,41.32,59.52c-1.38.8-2.5,0-2.5-1.89a6,6,0,0,1,2.5-4.79L62.94,40.25c1.38-.8,2.5,0,2.5,1.9a6,6,0,0,1-2.5,4.79Z" transform="translate(0 0)"/><path class="cls-4" d="M62.94,62.4,41.32,75c-1.38.8-2.5,0-2.5-1.89a6,6,0,0,1,2.5-4.79L62.94,55.71c1.38-.8,2.5,0,2.5,1.9a6,6,0,0,1-2.5,4.79Z" transform="translate(0 0)"/></g></g></svg>