<svg xmlns="http://www.w3.org/2000/svg" viewBox="0 0 79.9 92.94"><defs><style>.cls-1{fill:#be1e2d;}.cls-2{fill:#4d4d4d;}.cls-3{fill:#666;}.cls-4{fill:#474747;}.cls-5{fill:#77767e;}.cls-6{fill:#e0e0e2;}.cls-7{fill:gray;}.cls-8{fill:#57565c;}.cls-9{isolation:isolate;}.cls-10{fill:#898890;}</style></defs><title>step1</title><g id="Layer_2" data-name="Layer 2"><g id="Layer_1-2" data-name="Layer 1"><ellipse class="cls-1" cx="41.09" cy="85.19" rx="38.81" ry="7.76"/><polygon class="cls-2" points="33.94 0 30.37 2.06 30.34 36.87 0 54.39 0.01 58.49 45.97 85.2 79.89 65.62 79.9 26.71 33.94 0"/><polygon class="cls-3" points="79.9 26.71 79.89 65.62 45.97 85.2 45.96 81.1 76.33 63.58 76.33 28.77 79.9 26.71"/><polygon class="cls-2" points="45.97 85.2 0.01 58.49 0 54.39 45.96 81.1 45.97 85.2"/><polygon class="cls-4" points="45.96 81.1 0 54.39 30.34 36.87 76.33 63.58 45.96 81.1"/><polygon class="cls-5" points="28.45 69.63 15.73 62.24 24.13 57.39 36.85 64.78 28.45 69.63"/><polygon class="cls-2" points="76.33 63.58 30.34 36.87 30.37 2.06 76.33 28.77 76.33 63.58"/><polygon class="cls-6" points="72.9 57.54 33.78 34.82 33.8 9.05 72.9 31.77 72.9 57.54"/><polygon class="cls-7" points="76.33 28.77 30.37 2.06 33.94 0 79.9 26.71 76.33 28.77"/><path class="cls-8" d="M66.51,59l-.63.37v-.73l-3.15-1.82-.64.36v-.73l-3.16-1.82L58.3,55v-.74l-3.16-1.82-.63.37V52.1l-3.16-1.83-.63.37v-.73l-3.16-1.82-.63.37v-.74L43.79,45.9l-.64.37v-.73L40,43.71l-.64.37v-.73l-3.16-1.82-.63.36v-.73l-3.16-1.82-3,1.72v.73l-.63-.36-3,1.73v.72l-.63-.36-3,1.73V46l-.62-.36-3,1.73v.72L18,47.7l-3,1.73v1.45l3.16,1.82.63-.37v.74L22,54.89l.63-.37v.73l3.16,1.83.63-.37v.73l3.16,1.82.63-.36v.73l3.15,1.82.64-.37v.73l3.16,1.83.64-.37V64l3.16,1.82.63-.36v.73L44.73,68l.63-.37v.74l3.16,1.82.63-.37v.73l3.15,1.83,3-1.73v-.73l.62.37,3-1.73v-.73l.62.36,3-1.72v-.73l.63.36,3-1.72v-.73l.63.36,3-1.72V60.85Zm-3,2.45Zm-3.6,2.09Zm-3.6,2.09h0Zm-3.6,2.09h0Zm3.41-6.36h0Zm-3.6,2.09h0Zm-3.79-2.19h0ZM45,59.09h0ZM41.19,56.9ZM37.4,54.72h0Zm-3.79-2.19h0Zm-3.79-2.19h0Zm-1.24,0h0Zm26.32,11Zm-2.54-2.19h0Zm-1.25,0h0ZM48.57,57h0Zm-1.25,0h0Zm-2.54-2.2h0Zm-1.25,0ZM41,52.63h0Zm-1.26,0h0Zm-2.53-2.2Zm-1.25,0h0Zm-2.54-2.2h0Zm-1.25,0Zm.19,4.28Zm3.79,2.18h0Zm3.79,2.19h0Zm3.79,2.19h0Zm3.79,2.19h0Zm3.79,2.18h0ZM29.64,46.07h0ZM26,48.16h0Zm29.05,17.5Zm3.6-2.09Zm3.59-2.1h0Zm-2.53-2.18h0Zm-1.25,0ZM56,57.1h0Zm-1.26,0h0Zm-2.53-2.2h0Zm-1.26,0h0Zm-2.53-2.19h0Zm-1.26,0ZM44.6,50.54h0Zm-1.26,0h0Zm-2.53-2.2Zm-1.26,0h0ZM37,46.16Zm-1.25,0h0ZM33.23,44h0ZM32,44Zm-3.6,2.1h0Zm-3.6,2.09h0Zm-3.6,2.09h0Zm1.26,0h0ZM25,52.44h0Zm1.25,0h0Zm2.54,2.2h0Zm1.25,0Zm2.53,2.2Zm1.26,0h0ZM36.34,59h0Zm1.25,0h0Zm2.54,2.2h0Zm1.25,0h0Zm2.54,2.2h0Zm1.25,0Zm2.54,2.19h0Zm1.25,0h0Zm2.54,2.2h0Z"/><g class="cls-9"><polygon class="cls-8" points="35.58 41.16 35.57 42.61 32.6 44.34 32.61 42.89 35.58 41.16"/><polygon class="cls-5" points="32.61 42.89 32.6 44.34 29.45 42.52 29.45 41.06 32.61 42.89"/><polygon class="cls-10" points="29.45 41.06 32.42 39.34 35.58 41.16 32.61 42.89 29.45 41.06"/></g><g class="cls-9"><polygon class="cls-8" points="39.37 43.35 39.36 44.8 36.39 46.52 36.39 45.08 39.37 43.35"/><polygon class="cls-5" points="36.39 45.08 36.39 46.52 33.23 44.7 33.24 43.25 36.39 45.08"/><polygon class="cls-10" points="33.24 43.25 36.21 41.53 39.37 43.35 36.39 45.08 33.24 43.25"/><polygon class="cls-8" points="43.15 45.54 43.15 46.99 40.18 48.71 40.18 47.26 43.15 45.54"/><polygon class="cls-5" points="40.18 47.26 40.18 48.71 37.02 46.89 37.02 45.44 40.18 47.26"/><polygon class="cls-10" points="37.02 45.44 40 43.71 43.15 45.54 40.18 47.26 37.02 45.44"/><polygon class="cls-8" points="46.94 47.72 46.94 49.17 43.97 50.9 43.97 49.45 46.94 47.72"/><polygon class="cls-5" points="43.97 49.45 43.97 50.9 40.81 49.08 40.81 47.63 43.97 49.45"/><polygon class="cls-10" points="40.81 47.63 43.78 45.9 46.94 47.72 43.97 49.45 40.81 47.63"/><polygon class="cls-8" points="50.73 49.91 50.73 51.36 47.76 53.09 47.76 51.64 50.73 49.91"/><polygon class="cls-5" points="47.76 51.64 47.76 53.09 44.6 51.26 44.6 49.81 47.76 51.64"/><polygon class="cls-10" points="44.6 49.81 47.57 48.09 50.73 49.91 47.76 51.64 44.6 49.81"/><polygon class="cls-8" points="54.52 52.1 54.52 53.55 51.54 55.27 51.55 53.82 54.52 52.1"/><polygon class="cls-5" points="51.55 53.82 51.54 55.27 48.39 53.45 48.39 52 51.55 53.82"/><polygon class="cls-10" points="48.39 52 51.36 50.27 54.52 52.1 51.55 53.82 48.39 52"/><polygon class="cls-8" points="58.31 54.28 58.3 55.73 55.33 57.46 55.34 56.01 58.31 54.28"/><polygon class="cls-5" points="55.34 56.01 55.33 57.46 52.17 55.64 52.18 54.19 55.34 56.01"/><polygon class="cls-10" points="52.18 54.19 55.15 52.46 58.31 54.28 55.34 56.01 52.18 54.19"/><polygon class="cls-8" points="62.09 56.47 62.09 57.92 59.12 59.65 59.12 58.2 62.09 56.47"/><polygon class="cls-5" points="59.12 58.2 59.12 59.65 55.96 57.83 55.97 56.38 59.12 58.2"/><polygon class="cls-10" points="55.97 56.38 58.94 54.65 62.09 56.47 59.12 58.2 55.97 56.38"/><polygon class="cls-8" points="65.88 58.66 65.88 60.11 62.91 61.84 62.91 60.39 65.88 58.66"/><polygon class="cls-5" points="62.91 60.39 62.91 61.84 59.75 60.01 59.76 58.56 62.91 60.39"/><polygon class="cls-10" points="59.76 58.56 62.73 56.84 65.88 58.66 62.91 60.39 59.76 58.56"/><polygon class="cls-8" points="69.67 60.85 69.67 62.3 66.7 64.02 66.7 62.57 69.67 60.85"/><polygon class="cls-5" points="66.7 62.57 66.7 64.02 63.54 62.2 63.54 60.75 66.7 62.57"/><polygon class="cls-10" points="66.51 59.02 69.67 60.85 66.7 62.57 63.54 60.75 66.51 59.02"/><polygon class="cls-8" points="31.98 43.25 31.98 44.7 29 46.43 29.01 44.98 31.98 43.25"/><polygon class="cls-5" points="29.01 44.98 29 46.43 25.85 44.61 25.85 43.16 29.01 44.98"/><polygon class="cls-10" points="25.85 43.16 28.82 41.43 31.98 43.25 29.01 44.98 25.85 43.16"/><polygon class="cls-8" points="35.77 45.44 35.76 46.89 32.79 48.62 32.8 47.17 35.77 45.44"/><polygon class="cls-5" points="32.8 47.17 32.79 48.62 29.64 46.79 29.64 45.34 32.8 47.17"/><polygon class="cls-10" points="29.64 45.34 32.61 43.62 35.77 45.44 32.8 47.17 29.64 45.34"/><polygon class="cls-8" points="39.56 47.63 39.55 49.08 36.58 50.8 36.58 49.35 39.56 47.63"/><polygon class="cls-5" points="36.58 49.35 36.58 50.8 33.42 48.98 33.43 47.53 36.58 49.35"/><polygon class="cls-10" points="33.43 47.53 36.4 45.8 39.56 47.63 36.58 49.35 33.43 47.53"/><polygon class="cls-8" points="43.34 49.81 43.34 51.26 40.37 52.99 40.37 51.54 43.34 49.81"/><polygon class="cls-5" points="40.37 51.54 40.37 52.99 37.21 51.17 37.22 49.72 40.37 51.54"/><polygon class="cls-10" points="37.22 49.72 40.19 47.99 43.34 49.81 40.37 51.54 37.22 49.72"/><polygon class="cls-8" points="47.13 52 47.13 53.45 44.16 55.18 44.16 53.73 47.13 52"/><polygon class="cls-5" points="44.16 53.73 44.16 55.18 41 53.35 41 51.91 44.16 53.73"/><polygon class="cls-10" points="41 51.91 43.98 50.18 47.13 52 44.16 53.73 41 51.91"/><polygon class="cls-8" points="50.92 54.19 50.92 55.64 47.95 57.37 47.95 55.91 50.92 54.19"/><polygon class="cls-5" points="47.95 55.91 47.95 57.37 44.79 55.54 44.79 54.09 47.95 55.91"/><polygon class="cls-10" points="44.79 54.09 47.76 52.37 50.92 54.19 47.95 55.91 44.79 54.09"/><polygon class="cls-8" points="54.71 56.38 54.7 57.83 51.73 59.55 51.74 58.1 54.71 56.38"/><polygon class="cls-5" points="51.74 58.1 51.73 59.55 48.58 57.73 48.58 56.28 51.74 58.1"/><polygon class="cls-10" points="48.58 56.28 51.55 54.55 54.71 56.38 51.74 58.1 48.58 56.28"/><polygon class="cls-8" points="58.5 58.56 58.49 60.01 55.52 61.74 55.53 60.29 58.5 58.56"/><polygon class="cls-5" points="55.53 60.29 55.52 61.74 52.37 59.92 52.37 58.47 55.53 60.29"/><polygon class="cls-10" points="52.37 58.47 55.34 56.74 58.5 58.56 55.53 60.29 52.37 58.47"/><polygon class="cls-8" points="62.29 60.75 62.28 62.2 59.31 63.93 59.31 62.48 62.29 60.75"/><polygon class="cls-5" points="59.31 62.48 59.31 63.93 56.15 62.1 56.16 60.65 59.31 62.48"/><polygon class="cls-10" points="56.16 60.65 59.13 58.93 62.29 60.75 59.31 62.48 56.16 60.65"/><polygon class="cls-8" points="66.07 62.94 66.07 64.39 63.1 66.11 63.1 64.66 66.07 62.94"/><polygon class="cls-5" points="63.1 64.66 63.1 66.11 59.94 64.29 59.95 62.84 63.1 64.66"/><polygon class="cls-10" points="59.95 62.84 62.92 61.11 66.07 62.94 63.1 64.66 59.95 62.84"/><polygon class="cls-8" points="28.38 45.34 28.38 46.79 25.41 48.52 25.41 47.07 28.38 45.34"/><polygon class="cls-5" points="25.41 47.07 25.41 48.52 22.25 46.7 22.25 45.25 25.41 47.07"/><polygon class="cls-10" points="22.25 45.25 25.22 43.52 28.38 45.34 25.41 47.07 22.25 45.25"/><polygon class="cls-8" points="32.17 47.53 32.16 48.98 29.19 50.71 29.2 49.26 32.17 47.53"/><polygon class="cls-5" points="29.2 49.26 29.19 50.71 26.04 48.88 26.04 47.43 29.2 49.26"/><polygon class="cls-10" points="26.04 47.43 29.01 45.71 32.17 47.53 29.2 49.26 26.04 47.43"/><polygon class="cls-8" points="35.96 49.72 35.95 51.17 32.98 52.89 32.99 51.44 35.96 49.72"/><polygon class="cls-5" points="32.99 51.44 32.98 52.89 29.82 51.07 29.83 49.62 32.99 51.44"/><polygon class="cls-10" points="29.83 49.62 32.8 47.9 35.96 49.72 32.99 51.44 29.83 49.62"/><polygon class="cls-8" points="39.75 51.91 39.74 53.35 36.77 55.08 36.77 53.63 39.75 51.91"/><polygon class="cls-5" points="36.77 53.63 36.77 55.08 33.61 53.26 33.62 51.81 36.77 53.63"/><polygon class="cls-10" points="33.62 51.81 36.59 50.08 39.75 51.91 36.77 53.63 33.62 51.81"/><polygon class="cls-8" points="43.53 54.09 43.53 55.54 40.56 57.27 40.56 55.82 43.53 54.09"/><polygon class="cls-5" points="40.56 55.82 40.56 57.27 37.4 55.45 37.41 54 40.56 55.82"/><polygon class="cls-10" points="37.41 54 40.38 52.27 43.53 54.09 40.56 55.82 37.41 54"/><polygon class="cls-8" points="47.32 56.28 47.32 57.73 44.35 59.46 44.35 58.01 47.32 56.28"/><polygon class="cls-5" points="44.35 58.01 44.35 59.46 41.19 57.63 41.2 56.18 44.35 58.01"/><polygon class="cls-10" points="41.2 56.18 44.16 54.46 47.32 56.28 44.35 58.01 41.2 56.18"/><polygon class="cls-8" points="51.11 58.47 51.11 59.92 48.14 61.64 48.14 60.19 51.11 58.47"/><polygon class="cls-5" points="48.14 60.19 48.14 61.64 44.98 59.82 44.98 58.37 48.14 60.19"/><polygon class="cls-10" points="44.98 58.37 47.95 56.64 51.11 58.47 48.14 60.19 44.98 58.37"/><polygon class="cls-8" points="54.9 60.65 54.9 62.1 51.92 63.83 51.93 62.38 54.9 60.65"/><polygon class="cls-5" points="51.93 62.38 51.92 63.83 48.77 62.01 48.77 60.56 51.93 62.38"/><polygon class="cls-10" points="48.77 60.56 51.74 58.83 54.9 60.65 51.93 62.38 48.77 60.56"/><polygon class="cls-8" points="58.69 62.84 58.68 64.29 55.71 66.02 55.72 64.57 58.69 62.84"/><polygon class="cls-5" points="55.72 64.57 55.71 66.02 52.55 64.19 52.56 62.74 55.72 64.57"/><polygon class="cls-10" points="52.56 62.74 55.53 61.02 58.69 62.84 55.72 64.57 52.56 62.74"/><polygon class="cls-8" points="62.48 65.03 62.47 66.48 59.5 68.2 59.51 66.75 62.48 65.03"/><polygon class="cls-5" points="59.51 66.75 59.5 68.2 56.34 66.38 56.35 64.93 59.51 66.75"/><polygon class="cls-10" points="56.35 64.93 59.32 63.2 62.48 65.03 59.51 66.75 56.35 64.93"/><polygon class="cls-8" points="24.78 47.43 24.78 48.88 21.81 50.61 21.81 49.16 24.78 47.43"/><polygon class="cls-5" points="21.81 49.16 21.81 50.61 18.65 48.79 18.66 47.34 21.81 49.16"/><polygon class="cls-10" points="18.66 47.34 21.63 45.61 24.78 47.43 21.81 49.16 18.66 47.34"/><polygon class="cls-8" points="28.57 49.62 28.57 51.07 25.6 52.8 25.6 51.35 28.57 49.62"/><polygon class="cls-5" points="25.6 51.35 25.6 52.8 22.44 50.98 22.44 49.52 25.6 51.35"/><polygon class="cls-10" points="22.44 49.52 25.41 47.8 28.57 49.62 25.6 51.35 22.44 49.52"/><polygon class="cls-8" points="32.36 51.81 32.36 53.26 29.39 54.98 29.39 53.53 32.36 51.81"/><polygon class="cls-5" points="29.39 53.53 29.39 54.98 26.23 53.16 26.23 51.71 29.39 53.53"/><polygon class="cls-10" points="26.23 51.71 29.2 49.99 32.36 51.81 29.39 53.53 26.23 51.71"/><polygon class="cls-8" points="36.15 54 36.14 55.45 33.17 57.17 33.18 55.72 36.15 54"/><polygon class="cls-5" points="33.18 55.72 33.17 57.17 30.02 55.35 30.02 53.9 33.18 55.72"/><polygon class="cls-10" points="30.02 53.9 32.99 52.17 36.15 54 33.18 55.72 30.02 53.9"/><polygon class="cls-8" points="39.94 56.18 39.93 57.63 36.96 59.36 36.97 57.91 39.94 56.18"/><polygon class="cls-5" points="36.97 57.91 36.96 59.36 33.8 57.54 33.81 56.09 36.97 57.91"/><polygon class="cls-10" points="33.81 56.09 36.78 54.36 39.94 56.18 36.97 57.91 33.81 56.09"/><polygon class="cls-8" points="43.73 58.37 43.72 59.82 40.75 61.55 40.75 60.1 43.73 58.37"/><polygon class="cls-5" points="40.75 60.1 40.75 61.55 37.59 59.72 37.6 58.27 40.75 60.1"/><polygon class="cls-10" points="37.6 58.27 40.57 56.55 43.73 58.37 40.75 60.1 37.6 58.27"/><polygon class="cls-8" points="47.51 60.56 47.51 62.01 44.54 63.73 44.54 62.28 47.51 60.56"/><polygon class="cls-5" points="44.54 62.28 44.54 63.73 41.38 61.91 41.38 60.46 44.54 62.28"/><polygon class="cls-10" points="41.38 60.46 44.36 58.73 47.51 60.56 44.54 62.28 41.38 60.46"/><polygon class="cls-8" points="51.3 62.74 51.3 64.19 48.33 65.92 48.33 64.47 51.3 62.74"/><polygon class="cls-5" points="48.33 64.47 48.33 65.92 45.17 64.1 45.17 62.65 48.33 64.47"/><polygon class="cls-10" points="45.17 62.65 48.14 60.92 51.3 62.74 48.33 64.47 45.17 62.65"/><polygon class="cls-8" points="55.09 64.93 55.09 66.38 52.12 68.11 52.12 66.66 55.09 64.93"/><polygon class="cls-5" points="52.12 66.66 52.12 68.11 48.96 66.28 48.96 64.83 52.12 66.66"/><polygon class="cls-10" points="48.96 64.83 51.93 63.11 55.09 64.93 52.12 66.66 48.96 64.83"/><polygon class="cls-8" points="58.88 67.12 58.87 68.57 55.9 70.3 55.91 68.84 58.88 67.12"/><polygon class="cls-5" points="55.91 68.84 55.9 70.3 52.75 68.47 52.75 67.02 55.91 68.84"/><polygon class="cls-10" points="52.75 67.02 55.72 65.3 58.88 67.12 55.91 68.84 52.75 67.02"/><polygon class="cls-8" points="21.18 49.52 21.18 50.98 18.21 52.7 18.21 51.25 21.18 49.52"/><polygon class="cls-5" points="18.21 51.25 18.21 52.7 15.05 50.88 15.06 49.43 18.21 51.25"/><polygon class="cls-10" points="15.06 49.43 18.03 47.7 21.18 49.52 18.21 51.25 15.06 49.43"/><polygon class="cls-8" points="24.97 51.71 24.97 53.16 22 54.89 22 53.44 24.97 51.71"/><polygon class="cls-5" points="22 53.44 22 54.89 18.84 53.07 18.85 51.62 22 53.44"/><polygon class="cls-10" points="18.85 51.62 21.82 49.89 24.97 51.71 22 53.44 18.85 51.62"/><polygon class="cls-8" points="28.76 53.9 28.76 55.35 25.79 57.08 25.79 55.63 28.76 53.9"/><polygon class="cls-5" points="25.79 55.63 25.79 57.08 22.63 55.25 22.63 53.8 25.79 55.63"/><polygon class="cls-10" points="22.63 53.8 25.61 52.08 28.76 53.9 25.79 55.63 22.63 53.8"/><polygon class="cls-8" points="32.55 56.09 32.55 57.54 29.58 59.26 29.58 57.81 32.55 56.09"/><polygon class="cls-5" points="29.58 57.81 29.58 59.26 26.42 57.44 26.42 55.99 29.58 57.81"/><polygon class="cls-10" points="26.42 55.99 29.39 54.26 32.55 56.09 29.58 57.81 26.42 55.99"/><polygon class="cls-8" points="36.34 58.27 36.34 59.72 33.36 61.45 33.37 60 36.34 58.27"/><polygon class="cls-5" points="33.37 60 33.36 61.45 30.21 59.63 30.21 58.18 33.37 60"/><polygon class="cls-10" points="30.21 58.18 33.18 56.45 36.34 58.27 33.37 60 30.21 58.18"/><polygon class="cls-8" points="40.13 60.46 40.12 61.91 37.15 63.64 37.16 62.19 40.13 60.46"/><polygon class="cls-5" points="37.16 62.19 37.15 63.64 33.99 61.81 34 60.36 37.16 62.19"/><polygon class="cls-10" points="34 60.36 36.97 58.64 40.13 60.46 37.16 62.19 34 60.36"/><polygon class="cls-8" points="43.91 62.65 43.91 64.1 40.94 65.83 40.95 64.37 43.91 62.65"/><polygon class="cls-5" points="40.95 64.37 40.94 65.83 37.78 64 37.79 62.55 40.95 64.37"/><polygon class="cls-10" points="37.79 62.55 40.76 60.83 43.91 62.65 40.95 64.37 37.79 62.55"/><polygon class="cls-8" points="47.7 64.83 47.7 66.28 44.73 68.01 44.73 66.56 47.7 64.83"/><polygon class="cls-5" points="44.73 66.56 44.73 68.01 41.57 66.19 41.58 64.74 44.73 66.56"/><polygon class="cls-10" points="41.58 64.74 44.55 63.01 47.7 64.83 44.73 66.56 41.58 64.74"/><polygon class="cls-8" points="51.49 67.02 51.49 68.47 48.52 70.2 48.52 68.75 51.49 67.02"/><polygon class="cls-5" points="48.52 68.75 48.52 70.2 45.36 68.38 45.36 66.93 48.52 68.75"/><polygon class="cls-10" points="45.36 66.93 48.34 65.2 51.49 67.02 48.52 68.75 45.36 66.93"/><polygon class="cls-8" points="55.28 69.21 55.28 70.66 52.3 72.39 52.31 70.94 55.28 69.21"/><polygon class="cls-5" points="52.31 70.94 52.3 72.39 49.15 70.56 49.15 69.11 52.31 70.94"/><polygon class="cls-10" points="49.15 69.11 52.12 67.39 55.28 69.21 52.31 70.94 49.15 69.11"/></g></g></g></svg>