<svg xmlns="http://www.w3.org/2000/svg" viewBox="0 0 114.09 92.94"><defs><style>.cls-1{fill:#be1e2d;}.cls-2{fill:#7bcc92;}.cls-3{isolation:isolate;}.cls-4{fill:#65c27c;}.cls-5{fill:#94d6a8;}.cls-6{fill:#4dba69;}.cls-7{fill:#e0e0e2;}.cls-8{fill:#d8d8da;}.cls-9{fill:#feda44;}.cls-10{fill:#eebf00;}.cls-11{fill:#fece00;}</style></defs><title>step3</title><g id="Layer_2" data-name="Layer 2"><g id="Layer_1-2" data-name="Layer 1"><ellipse class="cls-1" cx="59.37" cy="85.19" rx="38.81" ry="7.76"/><polygon class="cls-2" points="48.91 18.11 20.35 34.71 20.3 53.44 74.85 84.94 103.42 68.34 103.47 49.61 48.91 18.11"/><g class="cls-3"><polygon class="cls-4" points="103.47 49.61 103.42 68.34 74.85 84.94 74.9 66.21 103.47 49.61"/><polygon class="cls-2" points="74.9 66.21 74.85 84.94 20.3 53.44 20.35 34.71 74.9 66.21"/><polygon class="cls-2" points="103.47 49.61 74.9 66.21 20.35 34.71 48.91 18.11 103.47 49.61"/></g><g class="cls-3"><path class="cls-5" d="M51.71,21.86a2.17,2.17,0,0,1-.52.4V22a2.84,2.84,0,0,0,.52-.4Z"/><path class="cls-5" d="M50.94,22.39v-.22l.25-.13h0v.22h0Z"/><path class="cls-5" d="M50.94,22.39l-.25.11v-.23l.25-.1Z"/><path class="cls-5" d="M46.66,22.26a2.5,2.5,0,0,1-.55-.43V21.6a2.26,2.26,0,0,0,.55.44,5.07,5.07,0,0,0,4,.23v.23A5.08,5.08,0,0,1,46.66,22.26Z"/><path class="cls-6" d="M28.07,34.71v.23a1.6,1.6,0,0,0-.95-1.32,3.6,3.6,0,0,0-.75-.32v-.23a4.23,4.23,0,0,1,.75.32A1.63,1.63,0,0,1,28.07,34.71Z"/><polygon class="cls-5" points="74.53 34.81 74.53 35.04 51.71 21.86 51.71 21.64 74.53 34.81"/><polygon class="cls-6" points="49.27 49.49 49.27 49.72 26.45 36.54 26.45 36.32 49.27 49.49"/><path class="cls-5" d="M28.07,34.71v.23a1.58,1.58,0,0,1-.93,1.3,3.59,3.59,0,0,1-.69.3v-.22a3.59,3.59,0,0,0,.69-.3A1.58,1.58,0,0,0,28.07,34.71Z"/><path class="cls-6" d="M44,42.33V42.1c0-2.64,1.74-5.27,5.21-7.29V35C45.72,37.05,44,39.69,44,42.33Z"/><path class="cls-5" d="M49.27,49.72C45.75,47.69,44,45,44,42.36v-.23c0,2.67,1.77,5.33,5.29,7.36Z"/><path class="cls-6" d="M74.53,34.81V35C67.51,31,56.16,31,49.19,35v-.23C56.16,30.76,67.51,30.76,74.53,34.81Z"/><polygon class="cls-5" points="97.35 47.99 97.35 48.21 74.53 35.04 74.53 34.81 97.35 47.99"/><path class="cls-6" d="M79.82,42.2v.23c0-2.68-1.76-5.35-5.29-7.39v-.23C78.06,36.85,79.83,39.53,79.82,42.2Z"/><path class="cls-5" d="M79.82,42.4c0,2.65-1.73,5.29-5.21,7.32v-.23c3.48-2,5.22-4.67,5.21-7.32Z"/><path class="cls-6" d="M95.73,49.82v-.23a1.58,1.58,0,0,1,.93-1.3,3.59,3.59,0,0,1,.69-.3v.22a3.59,3.59,0,0,0-.69.3A1.58,1.58,0,0,0,95.73,49.82Z"/><polygon class="cls-6" points="72.09 62.67 72.09 62.89 49.27 49.72 49.27 49.49 72.09 62.67"/><path class="cls-5" d="M72,51C65,53.72,55.47,53.3,49.27,49.72v-.23c6.2,3.58,15.77,4,22.72,1.26Z"/><path class="cls-5" d="M49.36,49.77l-.09-.05v-.23l.09,0Z"/><path class="cls-5" d="M74.61,49.72A20.47,20.47,0,0,1,72,51v-.23a17.62,17.62,0,0,0,2.62-1.26Z"/><path class="cls-5" d="M95.73,49.82v-.23a1.6,1.6,0,0,0,1,1.32,3.6,3.6,0,0,0,.75.32v.23a3.94,3.94,0,0,1-.75-.32A1.63,1.63,0,0,1,95.73,49.82Z"/><path class="cls-5" d="M53.36,51.49a20.88,20.88,0,0,1-4-1.72v-.23a20.9,20.9,0,0,0,4,1.73Z"/><path class="cls-5" d="M53.36,51.49v-.22l.13,0v.23Z"/><path class="cls-5" d="M53.53,51.54h0v-.22h0Z"/><path class="cls-5" d="M53.53,51.47v-.15a27.9,27.9,0,0,0,4.45,1v.22a26.62,26.62,0,0,1-4.45-1v-.07Z"/><path class="cls-5" d="M58,52.5v-.22h0v.23Z"/><path class="cls-5" d="M58.09,52.51H58v-.23h.07Z"/><path class="cls-5" d="M58.34,52.55l-.25,0v-.22l.26,0A1.77,1.77,0,0,0,58.34,52.55Z"/><path class="cls-5" d="M58.34,52.47v-.15h0v.22h0Z"/><path class="cls-5" d="M64.89,52.62l-.62.05v-.22l.62-.06Z"/><path class="cls-5" d="M64.27,52.67h0v-.22h0Z"/><path class="cls-5" d="M63.65,52.71v-.22l.59,0v.22Z"/><path class="cls-5" d="M60.35,52.72c-.66,0-1.32-.09-2-.17v-.22c.65.07,1.3.13,2,.16Z"/><path class="cls-5" d="M63.65,52.71l-.27,0V52.5h.27Z"/><path class="cls-5" d="M74.53,34.81c7,4.06,7.06,10.63.08,14.68A17.62,17.62,0,0,1,72,50.75C65,53.49,55.47,53.07,49.27,49.49c-7-4.05-7.06-10.62-.08-14.68S67.51,30.76,74.53,34.81Z"/><path class="cls-6" d="M77.69,62.7v.23a2.14,2.14,0,0,0-.56-.44,5,5,0,0,0-4.52,0,2.46,2.46,0,0,0-.52.4v-.22a2.17,2.17,0,0,1,.52-.4,5,5,0,0,1,4.53,0A2.5,2.5,0,0,1,77.69,62.7Z"/><path class="cls-5" d="M48.91,18.1l54.55,31.5L74.89,66.2,20.34,34.7ZM77.69,62.7,97.43,51.23a3.6,3.6,0,0,1-.75-.32c-1.26-.72-1.26-1.9,0-2.62a3.59,3.59,0,0,1,.69-.3L74.53,34.81,51.71,21.64a2.46,2.46,0,0,1-.52.4,5,5,0,0,1-4.53,0,2.26,2.26,0,0,1-.55-.44L26.37,33.07a3.6,3.6,0,0,1,.75.32c1.26.73,1.26,1.9,0,2.63a3.59,3.59,0,0,1-.69.3L49.27,49.49a23.69,23.69,0,0,0,8.82,2.8,23.69,23.69,0,0,1-8.82-2.8L72.09,62.67a2.17,2.17,0,0,1,.52-.4,5,5,0,0,1,4.53,0,2.5,2.5,0,0,1,.55.43"/><path class="cls-6" d="M74.53,34.81c-7-4.05-18.37-4.05-25.34,0s-6.94,10.63.08,14.68L26.45,36.32a3.59,3.59,0,0,0,.69-.3c1.24-.73,1.24-1.9,0-2.63a3.6,3.6,0,0,0-.75-.32L46.11,21.6a2.14,2.14,0,0,0,.56.44,5,5,0,0,0,4.52,0,2.46,2.46,0,0,0,.52-.4Z"/><path class="cls-5" d="M46.11,21.6,26.37,33.07l.24.09,19.5-11.33Z"/><path class="cls-5" d="M64.89,52.39c-.5,0-1,.09-1.51.11C63.89,52.48,64.39,52.44,64.89,52.39Z"/><polygon class="cls-6" points="97.43 51.23 97.43 51.46 77.69 62.93 77.69 62.7 97.43 51.23"/><path class="cls-6" d="M97.35,48a3.59,3.59,0,0,0-.69.3c-1.24.72-1.24,1.9,0,2.62a3.6,3.6,0,0,0,.75.32L77.69,62.7a2.5,2.5,0,0,0-.55-.43,5,5,0,0,0-4.53,0,2.17,2.17,0,0,0-.52.4L49.27,49.49c6.2,3.58,15.77,4,22.72,1.26a17.62,17.62,0,0,0,2.62-1.26c7-4.05,6.94-10.62-.08-14.68Z"/></g><polygon class="cls-4" points="20.32 44.26 74.88 75.78 74.88 75.46 20.32 43.94 20.32 44.26"/><polygon class="cls-4" points="20.31 46.73 74.87 78.25 74.87 77.93 20.31 46.41 20.31 46.73"/><polygon class="cls-4" points="20.32 45.49 74.87 77.01 74.87 76.69 20.32 45.18 20.32 45.49"/><polygon class="cls-4" points="20.31 47.97 74.86 79.49 74.87 79.17 20.31 47.65 20.31 47.97"/><polygon class="cls-4" points="74.85 84.12 20.3 52.6 20.3 52.92 74.85 84.43 74.85 84.12"/><polygon class="cls-4" points="20.3 51.68 74.85 83.2 74.86 82.88 20.3 51.36 20.3 51.68"/><polygon class="cls-4" points="20.3 50.44 74.86 81.96 74.86 81.64 20.3 50.12 20.3 50.44"/><polygon class="cls-4" points="20.31 49.2 74.86 80.72 74.86 80.41 20.31 48.89 20.31 49.2"/><polygon class="cls-4" points="20.34 36.84 74.9 68.36 74.9 68.04 20.34 36.52 20.34 36.84"/><polygon class="cls-4" points="20.34 38.07 74.89 69.59 74.89 69.27 20.34 37.76 20.34 38.07"/><polygon class="cls-4" points="20.32 43.02 74.88 74.54 74.88 74.22 20.32 42.7 20.32 43.02"/><polygon class="cls-4" points="20.35 35.28 20.34 35.6 74.9 67.12 74.9 66.8 20.35 35.28"/><polygon class="cls-4" points="20.33 41.78 74.88 73.3 74.88 72.98 20.33 41.47 20.33 41.78"/><polygon class="cls-4" points="20.34 39.31 74.89 70.83 74.89 70.51 20.34 38.99 20.34 39.31"/><polygon class="cls-4" points="20.33 40.55 74.89 72.07 74.89 71.75 20.33 40.23 20.33 40.55"/><polygon class="cls-6" points="74.87 79.14 74.86 79.46 103.43 62.91 103.43 62.59 74.87 79.14"/><polygon class="cls-6" points="74.87 77.9 74.87 78.22 103.43 61.67 103.44 61.35 74.87 77.9"/><polygon class="cls-6" points="74.86 80.39 74.86 80.7 103.43 64.15 103.43 63.83 74.86 80.39"/><polygon class="cls-6" points="74.87 76.66 74.87 76.98 103.44 60.43 103.44 60.11 74.87 76.66"/><polygon class="cls-6" points="74.85 84.43 103.42 67.87 103.42 67.55 74.85 84.11 74.85 84.43"/><polygon class="cls-6" points="74.86 82.87 74.85 83.19 103.42 66.63 103.42 66.31 74.86 82.87"/><polygon class="cls-6" points="74.86 81.63 74.86 81.95 103.42 65.39 103.42 65.07 74.86 81.63"/><polygon class="cls-6" points="74.88 74.18 74.88 74.5 103.44 57.95 103.45 57.63 74.88 74.18"/><polygon class="cls-6" points="74.89 69.22 74.89 69.54 103.46 52.98 103.46 52.66 74.89 69.22"/><polygon class="cls-6" points="74.9 67.98 74.9 68.3 103.46 51.74 103.46 51.42 74.9 67.98"/><polygon class="cls-6" points="74.9 66.74 74.9 67.06 103.47 50.5 103.47 50.18 74.9 66.74"/><polygon class="cls-6" points="74.88 72.94 74.88 73.26 103.45 56.7 103.45 56.39 74.88 72.94"/><polygon class="cls-6" points="74.88 75.42 74.88 75.74 103.44 59.19 103.44 58.87 74.88 75.42"/><polygon class="cls-6" points="74.89 70.46 74.89 70.78 103.45 54.22 103.46 53.9 74.89 70.46"/><polygon class="cls-6" points="74.89 71.7 74.89 72.02 103.45 55.46 103.45 55.15 74.89 71.7"/><polygon class="cls-7" points="65.56 27.68 36.82 44.39 36.76 63.15 48.85 70.13 48.91 51.37 77.65 34.66 65.56 27.68"/><polyline class="cls-8" points="48.91 51.37 36.82 44.39 36.76 63.15 48.85 70.13 48.91 51.37"/><path class="cls-9" d="M3.39,47.19C1.3,48.34,0,50.89,0,54.52c0,7.15,5,15.8,11.16,19.34,3.07,1.76,5.86,1.92,7.87.75h0l5.75-3.3c2-1.17,3.31-3.69,3.31-7.29,0-7.14-5-15.79-11.16-19.33-3.07-1.75-5.84-1.92-7.86-.76L3.31,47.23Z"/><path class="cls-10" d="M3.31,47.23l5.74-3.29c2-1.16,4.79-1,7.86.76C23.07,48.24,28.07,56.89,28.07,64c0,3.6-1.27,6.12-3.31,7.29L19,74.62c2-1.17,3.31-3.7,3.31-7.29,0-7.14-5-15.8-11.16-19.33C8.1,46.24,5.32,46.08,3.31,47.23Z"/><path class="cls-9" d="M0,54.52C0,47.38,5,44.46,11.16,48S22.32,60.19,22.32,67.33s-5,10.06-11.16,6.53S0,61.67,0,54.52Z"/><path class="cls-10" d="M18.08,56.87a19.22,19.22,0,0,1,2.8,10.22c-.12,2.8-1.13,5-2.78,5.91s-3.94.78-6.43-.51A19.15,19.15,0,0,1,4.24,65a19.27,19.27,0,0,1-2.8-10.22c.12-2.8,1.14-4.95,2.78-5.9s3.94-.78,6.43.5A19.15,19.15,0,0,1,18.08,56.87ZM4.53,64.81a18.87,18.87,0,0,0,7.29,7.38c2.39,1.23,4.56,1.41,6.11.51s2.5-2.94,2.62-5.62a18.91,18.91,0,0,0-2.76-10,18.87,18.87,0,0,0-7.29-7.38C8.11,48.43,6,48.25,4.39,49.15s-2.5,3-2.61,5.63A19,19,0,0,0,4.53,64.81Z"/><path class="cls-11" d="M19.05,47.16l-5,2.9.34.31,5.73-3.31-.34-.3-.7.4"/><path class="cls-11" d="M24.2,52,24,51.66,18.22,55l.24.36Z"/><path class="cls-11" d="M13.72,43.41l-.66-.13-5.71,3.3.65.13Z"/><path class="cls-11" d="M11.2,48c.15.08.29.17.43.26L17.36,45l-.43-.25Z"/><path class="cls-11" d="M16.31,52.41l.28.33,5.74-3.3L22,49.1Z"/><path class="cls-11" d="M21.07,60.65l.15.42L27,57.76c0-.14-.09-.28-.14-.42Z"/><path class="cls-11" d="M19.81,57.72c.07.13.13.26.19.39l5.74-3.31c-.06-.14-.13-.27-.19-.4Z"/><path class="cls-11" d="M27.15,68.64a6.54,6.54,0,0,0,.28-.66L21.68,71.3c-.09.23-.18.45-.29.67Z"/><path class="cls-11" d="M22,63.81l.09.45L27.78,61l-.09-.45Z"/><path class="cls-11" d="M22.32,67.77l5.74-3.32c0-.14,0-.28,0-.42V64l-5.75,3.31v.51Z"/><path class="cls-9" d="M102.26,14.33a3.79,3.79,0,0,0-1.63,3.52A11.79,11.79,0,0,0,106,27.11a3.75,3.75,0,0,0,3.78.36h0l2.75-1.58a3.78,3.78,0,0,0,1.59-3.49,11.81,11.81,0,0,0-5.35-9.27,3.76,3.76,0,0,0-3.77-.36l-2.75,1.57Z"/><path class="cls-10" d="M102.22,14.35,105,12.78a3.76,3.76,0,0,1,3.77.36,11.81,11.81,0,0,1,5.35,9.27,3.78,3.78,0,0,1-1.59,3.49l-2.75,1.58A3.77,3.77,0,0,0,111.33,24,11.77,11.77,0,0,0,106,14.72,3.77,3.77,0,0,0,102.22,14.35Z"/><path class="cls-9" d="M100.63,17.85c0-3.42,2.4-4.82,5.35-3.13A11.77,11.77,0,0,1,111.33,24c0,3.42-2.39,4.82-5.35,3.12A11.79,11.79,0,0,1,100.63,17.85Z"/><path class="cls-10" d="M109.3,19a9.27,9.27,0,0,1,1.34,4.9,3.27,3.27,0,0,1-1.33,2.83,3.2,3.2,0,0,1-3.08-.24,9.06,9.06,0,0,1-3.56-3.6,9.29,9.29,0,0,1-1.35-4.9,3.31,3.31,0,0,1,1.34-2.83,3.21,3.21,0,0,1,3.08.25A9.16,9.16,0,0,1,109.3,19Zm-6.49,3.81a9,9,0,0,0,3.49,3.54,3.07,3.07,0,0,0,2.93.24,3.13,3.13,0,0,0,1.25-2.7,9.06,9.06,0,0,0-1.32-4.81,9,9,0,0,0-3.49-3.53,3.08,3.08,0,0,0-2.93-.25,3.13,3.13,0,0,0-1.25,2.7A9,9,0,0,0,102.81,22.78Z"/><path class="cls-11" d="M109.76,14.32l-2.41,1.39.17.15,2.74-1.59-.16-.14-.34.19"/><path class="cls-11" d="M112.23,16.65l-.11-.18-2.75,1.59.11.18Z"/><path class="cls-11" d="M107.21,12.52l-.32-.06L104.16,14l.31.06Z"/><path class="cls-11" d="M106,14.73l.21.13L109,13.27l-.2-.12Z"/><path class="cls-11" d="M108.45,16.83l.14.17,2.74-1.59-.13-.16Z"/><path class="cls-11" d="M110.73,20.79a1.18,1.18,0,0,1,.07.2l2.75-1.59a1.59,1.59,0,0,0-.07-.2Z"/><path class="cls-11" d="M110.13,19.38l.09.19L113,18l-.09-.19Z"/><path class="cls-11" d="M113.65,24.61a2.88,2.88,0,0,0,.13-.31L111,25.89a3.05,3.05,0,0,1-.13.32Z"/><path class="cls-11" d="M111.16,22.3a2.07,2.07,0,0,0,0,.22L114,20.93c0-.07,0-.15,0-.22Z"/><path class="cls-11" d="M111.33,24.2l2.75-1.59a1.41,1.41,0,0,0,0-.2v-.05L111.33,24v.25Z"/><path class="cls-9" d="M60.42,2.85C58.93,3.68,58,5.49,58,8.09c0,5.11,3.57,11.3,8,13.82,2.2,1.26,4.18,1.37,5.63.54h0L75.7,20.1c1.46-.84,2.36-2.64,2.36-5.21,0-5.1-3.57-11.29-8-13.82C67.9-.18,65.91-.3,64.47.53l-4.1,2.35Z"/><path class="cls-10" d="M60.37,2.88,64.47.53c1.44-.83,3.43-.71,5.62.54,4.4,2.53,8,8.72,8,13.82,0,2.57-.9,4.37-2.36,5.21l-4.11,2.36c1.46-.84,2.37-2.65,2.37-5.21C74,12.14,70.39,6,66,3.43,63.79,2.17,61.81,2.06,60.37,2.88Z"/><path class="cls-9" d="M58,8.09C58,3,61.57.9,66,3.43s8,8.71,8,13.82-3.57,7.19-8,4.66S58,13.2,58,8.09Z"/><path class="cls-10" d="M70.93,9.77a13.83,13.83,0,0,1,2,7.31c-.09,2-.81,3.54-2,4.22s-2.82.56-4.6-.36A13.7,13.7,0,0,1,61,15.57a13.83,13.83,0,0,1-2-7.31c.09-2,.81-3.54,2-4.22s2.82-.55,4.6.36A13.77,13.77,0,0,1,70.93,9.77Zm-9.69,5.68a13.46,13.46,0,0,0,5.21,5.27c1.71.88,3.26,1,4.37.37s1.78-2.11,1.87-4a13.56,13.56,0,0,0-2-7.18,13.46,13.46,0,0,0-5.21-5.27c-1.71-.88-3.26-1-4.37-.37s-1.78,2.11-1.87,4A13.54,13.54,0,0,0,61.24,15.45Z"/><path class="cls-11" d="M71.62,2.83,68,4.91l.24.21,4.1-2.36-.24-.22-.5.29"/><path class="cls-11" d="M75.3,6.3A2.33,2.33,0,0,1,75.13,6L71,8.41l.17.26Z"/><path class="cls-11" d="M67.81.15,67.34.06,63.25,2.42a3.89,3.89,0,0,1,.47.09Z"/><path class="cls-11" d="M66,3.45l.31.18,4.09-2.36-.31-.19Z"/><path class="cls-11" d="M69.66,6.58l.2.24L74,4.46l-.2-.25Z"/><path class="cls-11" d="M73.06,12.48l.11.29,4.1-2.36-.11-.3Z"/><path class="cls-11" d="M72.16,10.38l.14.27,4.1-2.36L76.26,8Z"/><path class="cls-11" d="M77.41,18.18c.07-.15.14-.31.2-.47L73.5,20.09c-.07.16-.13.32-.21.47Z"/><path class="cls-11" d="M73.69,14.73c0,.11,0,.22.07.32l4.1-2.36-.06-.33Z"/><path class="cls-11" d="M74,17.56l4.11-2.37v-.36L74,17.2v.05C74,17.35,74,17.46,74,17.56Z"/></g></g></svg>