<svg xmlns="http://www.w3.org/2000/svg" xmlns:xlink="http://www.w3.org/1999/xlink" viewBox="0 0 85.93 106.51"><defs><style>.cls-1{fill:none;}.cls-2{isolation:isolate;}.cls-3{opacity:0.3;}.cls-19,.cls-3,.cls-7{mix-blend-mode:multiply;}.cls-19,.cls-4{fill:#b6c4ee;}.cls-5{fill:#f0effe;}.cls-6{fill:#9eb0dd;}.cls-19,.cls-7{opacity:0.7;}.cls-8{fill:#2c2982;}.cls-9{fill:#424596;}.cls-10{fill:url(#linear-gradient);}.cls-11{fill:#f3f3fe;}.cls-12{fill:url(#linear-gradient-2);}.cls-13{fill:url(#linear-gradient-3);}.cls-14{fill:#fe5773;}.cls-15{clip-path:url(#clip-path);}.cls-16{fill:#4367c7;}.cls-17{fill:url(#linear-gradient-4);}.cls-18{fill:#c5d0f2;}.cls-20{fill:#f74169;}.cls-21{fill:#ffb699;}.cls-22{fill:#e08c6e;}.cls-23{fill:url(#linear-gradient-5);}.cls-24{fill:#ca4560;}.cls-25{fill:#c4cff1;}</style><linearGradient id="linear-gradient" x1="20.22" y1="45.48" x2="32.42" y2="45.48" gradientUnits="userSpaceOnUse"><stop offset="0" stop-color="#6381d1"/><stop offset="0.99" stop-color="#4367c7"/></linearGradient><linearGradient id="linear-gradient-2" x1="-375.08" y1="43.5" x2="-379.58" y2="43.5" gradientTransform="matrix(-1, 0, 0, 1, -354.33, 0)" xlink:href="#linear-gradient"/><linearGradient id="linear-gradient-3" x1="-376.08" y1="43.28" x2="-378.28" y2="43.28" gradientTransform="matrix(-1, 0, 0, 1, -354.33, 0)" xlink:href="#linear-gradient"/><clipPath id="clip-path"><path class="cls-1" d="M13.7,42.77,42.71,26l19.22,11.1-29,16.75Z"/></clipPath><linearGradient id="linear-gradient-4" x1="44.83" y1="27.59" x2="38.39" y2="24.83" gradientUnits="userSpaceOnUse"><stop offset="0" stop-color="#424596"/><stop offset="1" stop-color="#2c2982"/></linearGradient><linearGradient id="linear-gradient-5" x1="12.93" y1="12.81" x2="37.64" y2="12.81" gradientUnits="userSpaceOnUse"><stop offset="0.01" stop-color="#fe5773"/><stop offset="1" stop-color="#f74169"/></linearGradient></defs><title>thankyou-bg</title><g class="cls-2"><g id="Layer_2" data-name="Layer 2"><g id="Layer_1-2" data-name="Layer 1"><g class="cls-3"><path class="cls-4" d="M83.94,85.32,48.17,106a4,4,0,0,1-4,0L8.43,85.32a4,4,0,0,1,0-6.9L44.19,57.77a4,4,0,0,1,4,0L83.94,78.42A4,4,0,0,1,83.94,85.32Z"/></g><polygon class="cls-4" points="32.92 54.81 32.92 53.87 13.7 42.77 13.7 43.71 14.25 44.03 15.44 44.72 16.32 45.22 32.28 54.43 32.92 54.81"/><path class="cls-5" d="M13.7,42.77,42.71,26l19.22,11.1-29,16.75Z"/><path class="cls-4" d="M32.28,54.43l.64.38.87-.5,1.38-.8-7.1,20.91a1.26,1.26,0,0,1-.53,0,.9.9,0,0,1-.43-.24Z"/><path class="cls-4" d="M14.25,44l1.19.69.88.5L8.54,63.92A1.48,1.48,0,0,1,8,63.87a1,1,0,0,1-.46-.26Z"/><polygon class="cls-6" points="61.93 37.12 61.93 38.06 60.98 38.61 59.6 39.41 59.09 39.7 35.17 53.51 33.79 54.3 32.92 54.81 32.92 53.87 61.93 37.12"/><path class="cls-6" d="M59.6,39.41l1.38-.8,7.23,11.75s-.11.49-.52.56a.81.81,0,0,1-.62-.16l-8-11.06Z"/><path class="cls-6" d="M32.28,54.43l-.06.24a7.89,7.89,0,0,1,2.15,1.2l.8-2.36-1.38.8-.87.5Z"/><path class="cls-6" d="M15.44,44.72,14.25,44l-.19.56a6.87,6.87,0,0,1,1.75,1.84l.51-1.21Z"/><g class="cls-7"><polygon class="cls-4" points="21.23 44.33 21.23 44.27 22.23 43.7 22.23 43.56 23.93 42.58 24.05 42.65 24.93 42.14 24.98 42.17 25.45 41.9 32.9 46.2 32.9 46.34 28.15 49.08 20.7 44.78 20.7 44.64 21.23 44.33"/></g><polygon class="cls-8" points="27.67 49.15 32.42 46.41 32.42 46.26 27.67 49 27.67 49.15"/><polygon class="cls-9" points="20.22 44.85 27.67 49.15 27.67 49 20.22 44.7 20.22 44.85"/><polygon class="cls-10" points="25.25 42.73 21.56 44.86 20.75 44.4 20.22 44.7 27.67 49 32.42 46.26 24.97 41.96 24.5 42.23 25.25 42.67 25.25 42.73"/><polygon class="cls-11" points="21.33 44.84 27.43 48.36 31.31 46.12 25.22 42.6 21.33 44.84"/><polygon class="cls-12" points="21.75 43.76 20.75 44.34 21.56 44.8 25.25 42.67 24.5 42.23 24.44 42.2 23.57 42.71 23.95 42.93 23.95 43.07 22.25 44.05 21.75 43.76"/><polygon class="cls-8" points="25.25 42.67 21.56 44.8 21.56 44.86 25.25 42.73 25.25 42.67"/><polygon class="cls-9" points="21.56 44.8 20.75 44.34 20.75 44.4 21.56 44.86 21.56 44.8"/><polygon class="cls-9" points="21.75 43.76 22.25 44.05 22.25 43.91 21.75 43.62 21.75 43.76"/><polygon class="cls-8" points="22.25 44.05 23.95 43.07 23.95 42.93 22.25 43.91 22.25 44.05"/><polygon class="cls-13" points="22.25 43.91 23.95 42.93 23.57 42.71 23.45 42.64 21.75 43.62 22.25 43.91"/><polygon class="cls-14" points="23.29 45.57 25.21 44.46 24.98 44.33 23.06 45.44 23.29 45.57"/><polygon class="cls-14" points="23.72 45.81 25.64 44.71 25.41 44.58 23.49 45.68 23.72 45.81"/><polygon class="cls-14" points="24.15 46.06 26.07 44.95 25.84 44.82 23.92 45.93 24.15 46.06"/><polygon class="cls-14" points="25.33 45.87 26.5 45.2 26.27 45.07 25.1 45.74 25.33 45.87"/><polygon class="cls-14" points="26.23 44.78 27.24 44.19 26.23 43.61 25.21 44.19 26.23 44.78"/><polygon class="cls-14" points="28.31 44.81 26.39 45.92 26.17 45.79 28.09 44.68 28.31 44.81"/><polygon class="cls-14" points="28.74 45.06 26.82 46.17 26.59 46.04 28.51 44.93 28.74 45.06"/><polygon class="cls-14" points="29.17 45.31 27.25 46.42 27.02 46.28 28.94 45.18 29.17 45.31"/><polygon class="cls-14" points="29.6 45.56 28.44 46.23 28.21 46.09 29.37 45.42 29.6 45.56"/><polygon class="cls-14" points="26.94 46.51 25.93 47.09 24.92 46.51 25.93 45.92 26.94 46.51"/><g class="cls-15"><g class="cls-7"><path class="cls-6" d="M53.87,29.45,45.46,34.3a15.78,15.78,0,0,1-2.66.09l-1.51-2.23a.14.14,0,0,1,0-.26l8.41-4.85a.45.45,0,0,1,.45,0l3.72,2.14A.14.14,0,0,1,53.87,29.45Z"/></g></g><polygon class="cls-9" points="39.05 32.22 39.05 31.13 40.94 31.13 42.8 30.06 44.66 31.13 46.55 31.13 46.55 32.22 42.8 34.38 39.05 32.22 39.05 32.22"/><polygon class="cls-16" points="39.05 31.13 42.8 33.29 46.55 31.13 42.8 28.96 39.05 31.13"/><polygon class="cls-8" points="41.38 22.67 41.04 22.1 37.66 24.05 37.99 24.63 41.37 22.68 41.38 22.67"/><path class="cls-4" d="M41,22.1l.34.57s4,7.31,4,7.31l.39-.2L40.9,20.92l-.4.2Z"/><polygon class="cls-8" points="49.4 30.57 48.43 28.89 48.29 28.97 42.44 32.34 43.42 34.03 49.4 30.57"/><path class="cls-17" d="M42.44,32.35l-.13.07-4.46-7.71.14-.08,3.38-1.95L45.42,30l.39-.2,1.58-.91-4.06-7.33.51-.29L48.29,29ZM42,28.94l.31.53.14-.08.57-.33-.31-.53-.57.33Zm.81-.47.31.54.14-.08.57-.33-.31-.54-.57.33Zm-4.11-3.3.55.94.13-.08,2.27-1.31-.54-.94-2.27,1.31ZM42,27l.31.54.14-.08.57-.33-.31-.54-.57.34Zm-.36,1.23.31.53.13-.07.58-.34-.31-.53-.58.33Zm-1.11-.37-.14.07.31.54.14-.08.57-.33-.31-.53Zm.3.83.31.54.13-.08.58-.33-.31-.54-.57.34Zm.37-1.22.31.53.13-.07.58-.33L41.88,27l-.58.33Zm1.38.21-.14.08.31.54.14-.08.57-.33-.31-.54Zm-1.18,1.69-.13.08.31.54.13-.08.58-.33L42,29Zm1.92-.09.31.54.13-.08.58-.33L44,28.82l-.58.33Zm-1.61.93.31.54.13-.08.57-.33-.3-.54-.58.33Zm.8-.46.31.53.14-.08.57-.33-.31-.53-.57.33ZM42.2,31l.39.67.13-.08,2.08-1.2-.39-.67-2.08,1.2Z"/><polygon class="cls-8" points="43.84 21.25 43.97 21.17 43.64 20.6 43.01 20.96 43.33 21.54 43.84 21.25"/><polygon class="cls-9" points="37.66 24.05 37.04 24.41 42.8 34.39 43.42 34.03 42.44 32.34 42.31 32.42 37.85 24.71 37.99 24.63 37.66 24.05"/><polygon class="cls-6" points="45.81 29.78 47.39 28.87 43.33 21.54 43.01 20.96 42.48 20 40.9 20.91 45.81 29.78"/><polygon class="cls-6" points="42.48 20 42.08 20.21 40.5 21.12 40.9 20.91 42.48 20"/><rect class="cls-6" x="42.29" y="28.65" width="0.66" height="0.62" transform="translate(-8.77 25.19) rotate(-30)"/><rect class="cls-4" x="42.19" y="28.86" width="0.16" height="0.62" transform="translate(-8.92 25.04) rotate(-30)"/><rect class="cls-6" x="43.1" y="28.19" width="0.66" height="0.62" transform="translate(-8.43 25.53) rotate(-30)"/><rect class="cls-4" x="43" y="28.39" width="0.16" height="0.62" transform="translate(-8.58 25.39) rotate(-30)"/><rect class="cls-6" x="38.98" y="24.36" width="2.62" height="1.08" transform="translate(-7.06 23.48) rotate(-30)"/><rect class="cls-4" x="39" y="25.06" width="0.16" height="1.08" transform="translate(-7.56 22.97) rotate(-30)"/><rect class="cls-6" x="42.22" y="26.67" width="0.66" height="0.62" transform="translate(-7.79 24.89) rotate(-30)"/><rect class="cls-4" x="42.12" y="26.87" width="0.16" height="0.62" transform="translate(-7.94 24.74) rotate(-30)"/><rect class="cls-6" x="41.85" y="27.89" width="0.66" height="0.62" transform="translate(-8.45 24.87) rotate(-30)"/><rect class="cls-4" x="41.75" y="28.1" width="0.16" height="0.62" transform="translate(-8.6 24.72) rotate(-30)"/><rect class="cls-6" x="40.61" y="27.6" width="0.66" height="0.62" transform="translate(-8.47 24.21) rotate(-30)"/><rect class="cls-4" x="40.51" y="27.8" width="0.16" height="0.62" transform="translate(-8.62 24.06) rotate(-30)"/><rect class="cls-6" x="41.05" y="28.36" width="0.66" height="0.62" transform="translate(-8.79 24.53) rotate(-30)"/><rect class="cls-4" x="40.94" y="28.56" width="0.16" height="0.62" transform="translate(-8.94 24.38) rotate(-30)"/><rect class="cls-6" x="41.41" y="27.13" width="0.66" height="0.62" transform="translate(-8.13 24.55) rotate(-30)"/><rect class="cls-4" x="41.31" y="27.34" width="0.16" height="0.62" transform="translate(-8.28 24.4) rotate(-30)"/><rect class="cls-6" x="42.66" y="27.43" width="0.66" height="0.62" transform="translate(-8.11 25.22) rotate(-30.01)"/><rect class="cls-4" x="42.56" y="27.63" width="0.16" height="0.62" transform="translate(-8.26 25.07) rotate(-30.01)"/><rect class="cls-6" x="41.48" y="29.12" width="0.66" height="0.62" transform="translate(-9.11 24.85) rotate(-30)"/><rect class="cls-4" x="41.38" y="29.32" width="0.16" height="0.62" transform="translate(-9.26 24.69) rotate(-29.99)"/><rect class="cls-6" x="43.53" y="28.94" width="0.66" height="0.62" transform="translate(-8.75 25.85) rotate(-30)"/><rect class="cls-4" x="43.43" y="29.15" width="0.16" height="0.62" transform="translate(-8.9 25.7) rotate(-30)"/><rect class="cls-6" x="41.92" y="29.88" width="0.66" height="0.62" transform="translate(-9.43 25.17) rotate(-30)"/><rect class="cls-4" x="41.82" y="30.08" width="0.16" height="0.62" transform="translate(-9.58 25.02) rotate(-30)"/><rect class="cls-6" x="42.73" y="29.41" width="0.66" height="0.62" transform="translate(-9.09 25.51) rotate(-30)"/><rect class="cls-4" x="42.63" y="29.62" width="0.16" height="0.62" transform="translate(-9.24 25.37) rotate(-30)"/><rect class="cls-6" x="42.37" y="30.23" width="2.4" height="0.77" transform="translate(-9.47 25.89) rotate(-30)"/><rect class="cls-4" x="42.38" y="30.87" width="0.16" height="0.77" transform="translate(-9.94 25.42) rotate(-30)"/><g class="cls-7"><path class="cls-4" d="M26.22,37.54l4.27,3.11a5.47,5.47,0,0,0,1.89.09l5.54-3.2a.61.61,0,0,0,0-1.07l-5.54-3.2a.61.61,0,0,0-.61,0l-5.55,3.2A.62.62,0,0,0,26.22,37.54Z"/></g><polygon class="cls-16" points="31.63 34.01 27.28 36.52 26.69 36.18 25.25 37 30.48 40.02 37.73 35.84 32.51 32.82 31.99 33.11 31.63 34.01"/><polygon class="cls-8" points="27.28 36.52 31.63 34.01 31.99 33.11 27.64 35.63 27.28 36.52"/><polygon class="cls-9" points="26.69 36.18 27.28 36.52 27.64 35.63 26.69 36.18"/><polygon class="cls-8" points="37.73 35.84 30.48 40.02 30.48 40.72 37.73 36.53 37.73 35.84"/><polygon class="cls-9" points="23.07 25.68 23.07 37.48 23.74 37.88 23.74 26.07 23.07 25.68"/><polygon class="cls-16" points="37.98 17.07 23.07 25.68 23.74 26.07 38.66 17.46 37.98 17.07"/><polygon class="cls-9" points="24.83 37.25 24.83 37.45 30.48 40.72 30.48 40.02 25.25 37 24.83 37.25"/><path class="cls-8" d="M38.66,17.46V29.27l-6.15,3.55-.52.29-4.35,2.52-.95.55L25.25,37l-.42.25-1.09.63V26.07ZM26.61,36l.05,0,.68-.39v-.24l-.05,0-.68.4Zm-.87.5.05,0,.68-.39v-.24l0,0-.68.39Zm-1.55,1,.68-.39v-.23l-.05,0-.68.39v.23Zm1.45-1.07,0,0-.68.39V37l0,0,.67-.39ZM38.17,18.17,24.05,26.32V37.1l14.27-8.23V18.08Z"/><polygon class="cls-5" points="27.29 35.38 26.61 35.77 26.66 35.8 27.34 35.41 27.29 35.38"/><polygon class="cls-6" points="26.61 35.77 26.61 36.01 26.66 36.04 26.66 35.8 26.61 35.77"/><polygon class="cls-4" points="27.34 35.41 26.66 35.8 26.66 36.04 27.34 35.65 27.34 35.41"/><polygon class="cls-5" points="26.42 35.89 25.74 36.28 25.79 36.3 26.46 35.91 26.42 35.89"/><polygon class="cls-6" points="25.74 36.28 25.74 36.51 25.79 36.54 25.79 36.3 25.74 36.28"/><polygon class="cls-4" points="26.46 36.15 26.46 35.91 25.79 36.3 25.79 36.54 26.46 36.15"/><polygon class="cls-6" points="24.14 37.2 24.14 37.43 24.19 37.46 24.19 37.23 24.14 37.2"/><polygon class="cls-5" points="24.82 36.81 24.14 37.2 24.19 37.23 24.87 36.84 24.82 36.81"/><polygon class="cls-4" points="24.87 36.84 24.19 37.23 24.19 37.46 24.87 37.07 24.87 36.84"/><polygon class="cls-4" points="24.97 37.01 25.64 36.62 25.64 36.39 24.97 36.78 24.97 37.01"/><polygon class="cls-6" points="24.97 37.01 24.97 36.78 24.92 36.75 24.92 36.98 24.97 37.01"/><polygon class="cls-5" points="24.92 36.75 24.97 36.78 25.64 36.39 25.59 36.36 24.92 36.75"/><polygon class="cls-9" points="38.32 28.87 38.32 18.08 38.17 18.17 38.17 28.79 38.32 28.87"/><polygon class="cls-16" points="24.05 37.1 38.32 28.87 38.17 28.79 24.05 36.94 24.05 37.1"/><polygon class="cls-4" points="24.05 36.94 38.17 28.79 38.17 18.17 24.05 26.32 24.05 36.94"/><g class="cls-7"><path class="cls-4" d="M19.4,41.48s2.61,2.22,4.06.43-3-1.48-3-1.48"/></g><path class="cls-16" d="M19.66,36.83l.43-.08a3.43,3.43,0,0,1,.44,0c1,0,2.19.42,2,1.26V38c-.22.57-1,.83-1.6.92h-.09a2.66,2.66,0,0,1-2.07-.49.73.73,0,0,1-.27-.8l0-.1A1.77,1.77,0,0,1,19.66,36.83Zm2.65.6-.11-.13a2,2,0,0,0-.3-.22c-1-.53-2.73-.34-3.24.46v0c-.43.77.73,1.48,2.15,1.34a2.47,2.47,0,0,0,1.28-.45l.05,0A.69.69,0,0,0,22.31,37.43Z"/><path class="cls-9" d="M22.28,39,22.53,38c-.38,1.27-3.61,1.32-4.05.08.91,3.72.76,3.58,1.14,3.82a1.87,1.87,0,0,0,1.85-.08c.22-.19.21-.29.3-.67Z"/><path class="cls-8" d="M22.27,37.38a1,1,0,0,0-.25-.22,2.72,2.72,0,0,0-1.49-.38,3,3,0,0,0-1.38.32,1.36,1.36,0,0,0-.43.36.65.65,0,0,0-.16.41.8.8,0,0,0,.34.61c1,.76,3.14.5,3.51-.46v-.09A.67.67,0,0,0,22.27,37.38Z"/><path class="cls-5" d="M22,37.81a2.72,2.72,0,0,0-1.49-.38,3,3,0,0,0-1.38.32,1.47,1.47,0,0,0-.43.35l-.07.1a1.07,1.07,0,0,0,.25.28c1,.72,3,.52,3.45-.33L22.27,38A1,1,0,0,0,22,37.81Z"/><path class="cls-18" d="M21.9,38.57,21.65,38H19.81l-.3.37.32.46A3.11,3.11,0,0,0,21.9,38.57Z"/><path class="cls-4" d="M21.61,36.91c0-.09,0-.18,0-.27a1.51,1.51,0,0,0,.79-1.45c-.15-.62-.5.29-.8.57,0-1-.15-2-1.08-1.82-.39.09-.64.5-.82,1,0-.57,0-1.09-.35-1s-.51,2.07.05,2.64c0,.5-.18,1.64.23,1.93a1.92,1.92,0,0,0,1.73.14C21.91,38.43,21.69,38.3,21.61,36.91Z"/><path class="cls-6" d="M21.59,35.76c0-.16,0-.32,0-.48a2.83,2.83,0,0,1-1.78-.57,1.86,1.86,0,0,0-.1.25c0-.12,0-.23,0-.34a2.77,2.77,0,0,1-.48-.49A2.85,2.85,0,0,0,19,35.38a8,8,0,0,0,3.12.75,1.16,1.16,0,0,0,.25-.94l-.44.07A3.6,3.6,0,0,1,21.59,35.76Z"/><path class="cls-6" d="M21.68,37.66a6.34,6.34,0,0,1-2.3-.91,8.66,8.66,0,0,0-.05,1,9.27,9.27,0,0,0,2.21.88C21.77,38.42,21.74,38.24,21.68,37.66Z"/><g class="cls-7"><path class="cls-4" d="M45,37.68l1.53,1L49,40.13a.15.15,0,0,1,0,.26L36.39,47.67a.12.12,0,0,1-.14,0l-4.13-2.38a.16.16,0,0,1-.07-.13.14.14,0,0,1,.07-.12l12.76-7.37A.14.14,0,0,1,45,37.68Z"/></g><polygon class="cls-6" points="45.37 41.18 45.47 41.24 45.47 41.13 45.37 41.18"/><polygon class="cls-6" points="44.53 41.25 44.53 41.37 44.89 41.57 44.89 41.46 44.53 41.25"/><polygon class="cls-5" points="45.11 40.92 44.53 41.25 44.89 41.46 45.37 41.18 45.47 41.13 45.11 40.92"/><polygon class="cls-6" points="43.73 39.17 44.09 39.38 44.09 39.27 43.73 39.06 43.73 39.17"/><polygon class="cls-4" points="44.09 39.38 44.52 39.13 44.52 39.02 44.09 39.27 44.09 39.38"/><polygon class="cls-5" points="44.52 39.02 44.16 38.81 43.73 39.06 44.09 39.27 44.52 39.02"/><polygon class="cls-6" points="35.82 45.19 36.18 45.39 36.18 45.28 35.82 45.07 35.82 45.19"/><polygon class="cls-4" points="36.18 45.39 36.5 45.21 36.5 45.1 36.18 45.28 36.18 45.39"/><polygon class="cls-5" points="36.5 45.1 36.14 44.89 35.82 45.07 36.18 45.28 36.5 45.1"/><polygon class="cls-6" points="35.51 46.01 35.87 46.21 35.87 46.1 35.51 45.89 35.51 46.01"/><polygon class="cls-4" points="35.87 46.21 36.19 46.03 36.19 45.92 35.87 46.1 35.87 46.21"/><polygon class="cls-5" points="35.83 45.71 35.51 45.89 35.87 46.1 36.19 45.92 35.83 45.71"/><polygon class="cls-6" points="34.96 45.69 35.32 45.89 35.32 45.78 34.96 45.57 34.96 45.69"/><polygon class="cls-4" points="35.32 45.89 35.64 45.71 35.64 45.6 35.32 45.78 35.32 45.89"/><polygon class="cls-5" points="34.96 45.57 35.32 45.78 35.64 45.6 35.28 45.39 34.96 45.57"/><polygon class="cls-4" points="41.94 40.62 42.52 40.29 42.52 40.17 41.94 40.51 41.94 40.62"/><polygon class="cls-6" points="41.58 40.41 41.94 40.62 41.94 40.51 41.58 40.3 41.58 40.41"/><polygon class="cls-5" points="41.94 40.51 42.52 40.17 42.16 39.97 41.58 40.3 41.94 40.51"/><polygon class="cls-6" points="35.07 46.26 35.43 46.47 35.43 46.35 35.07 46.15 35.07 46.26"/><polygon class="cls-4" points="35.43 46.47 35.75 46.28 35.75 46.17 35.43 46.35 35.43 46.47"/><polygon class="cls-5" points="35.75 46.17 35.39 45.96 35.07 46.15 35.43 46.35 35.75 46.17"/><polygon class="cls-4" points="36.36 46.5 36.68 46.31 36.68 46.2 36.36 46.38 36.36 46.5"/><polygon class="cls-6" points="36 46.29 36.36 46.5 36.36 46.38 36 46.18 36 46.29"/><polygon class="cls-5" points="36.68 46.2 36.32 45.99 36 46.18 36.36 46.38 36.68 46.2"/><polygon class="cls-4" points="36.78 46.25 37.1 46.07 37.1 45.95 36.78 46.14 36.78 46.25"/><polygon class="cls-6" points="36.43 46.04 36.78 46.25 36.78 46.14 36.43 45.93 36.43 46.04"/><polygon class="cls-5" points="36.43 45.93 36.78 46.14 37.1 45.95 36.74 45.75 36.43 45.93"/><polygon class="cls-4" points="35.92 46.75 36.24 46.57 36.24 46.45 35.92 46.64 35.92 46.75"/><polygon class="cls-6" points="35.56 46.54 35.92 46.75 35.92 46.64 35.56 46.43 35.56 46.54"/><polygon class="cls-5" points="35.56 46.43 35.92 46.64 36.24 46.45 35.88 46.25 35.56 46.43"/><polygon class="cls-6" points="43.31 41.47 43.66 41.68 43.66 41.56 43.31 41.36 43.31 41.47"/><polygon class="cls-4" points="43.66 41.68 44.24 41.34 44.24 41.23 43.66 41.56 43.66 41.68"/><polygon class="cls-5" points="43.89 41.02 43.31 41.36 43.66 41.56 44.24 41.23 43.89 41.02"/><polygon class="cls-6" points="45.46 40.23 45.82 40.43 45.82 40.32 45.46 40.11 45.46 40.23"/><polygon class="cls-4" points="45.82 40.43 46.69 39.93 46.69 39.82 45.82 40.32 45.82 40.43"/><polygon class="cls-5" points="45.46 40.11 45.82 40.32 46.69 39.82 46.33 39.61 45.46 40.11"/><polygon class="cls-6" points="35.94 45.76 36.3 45.97 36.3 45.86 35.94 45.65 35.94 45.76"/><polygon class="cls-4" points="36.3 45.97 36.62 45.78 36.62 45.67 36.3 45.86 36.3 45.97"/><polygon class="cls-5" points="35.94 45.65 36.3 45.86 36.62 45.67 36.26 45.46 35.94 45.65"/><polygon class="cls-6" points="36.38 45.51 36.74 45.71 36.74 45.6 36.38 45.39 36.38 45.51"/><polygon class="cls-4" points="36.74 45.71 37.05 45.53 37.05 45.42 36.74 45.6 36.74 45.71"/><polygon class="cls-5" points="36.74 45.6 37.05 45.42 36.7 45.21 36.38 45.39 36.74 45.6"/><polygon class="cls-6" points="43.17 38.85 43.53 39.06 43.53 38.95 43.17 38.74 43.17 38.85"/><polygon class="cls-4" points="43.53 39.06 43.97 38.81 43.97 38.7 43.53 38.95 43.53 39.06"/><polygon class="cls-5" points="43.17 38.74 43.53 38.95 43.97 38.7 43.61 38.49 43.17 38.74"/><polygon class="cls-6" points="34.52 45.94 34.88 46.15 34.88 46.03 34.52 45.83 34.52 45.94"/><polygon class="cls-4" points="34.88 46.15 35.2 45.96 35.2 45.85 34.88 46.03 34.88 46.15"/><polygon class="cls-5" points="34.88 46.03 35.2 45.85 34.84 45.64 34.52 45.83 34.88 46.03"/><polygon class="cls-6" points="35.38 45.44 35.74 45.65 35.74 45.54 35.38 45.33 35.38 45.44"/><polygon class="cls-4" points="35.74 45.65 36.06 45.46 36.06 45.35 35.74 45.54 35.74 45.65"/><polygon class="cls-5" points="35.74 45.54 36.06 45.35 35.7 45.14 35.38 45.33 35.74 45.54"/><polygon class="cls-4" points="33.26 45.22 33.58 45.03 33.58 44.92 33.26 45.1 33.26 45.22"/><polygon class="cls-6" points="32.9 45.01 33.26 45.22 33.26 45.1 32.9 44.9 32.9 45.01"/><polygon class="cls-5" points="32.9 44.9 33.26 45.1 33.58 44.92 33.22 44.71 32.9 44.9"/><polygon class="cls-6" points="33.77 44.51 34.13 44.72 34.13 44.6 33.77 44.4 33.77 44.51"/><polygon class="cls-4" points="34.13 44.72 34.45 44.53 34.45 44.42 34.13 44.6 34.13 44.72"/><polygon class="cls-5" points="34.45 44.42 34.09 44.21 33.77 44.4 34.13 44.6 34.45 44.42"/><polygon class="cls-4" points="45.18 38.77 45.48 38.6 45.48 38.49 45.18 38.66 45.18 38.77"/><polygon class="cls-6" points="44.29 38.26 45.18 38.77 45.18 38.66 44.29 38.14 44.29 38.26"/><polygon class="cls-5" points="44.29 38.14 45.18 38.66 45.48 38.49 44.58 37.97 44.29 38.14"/><polygon class="cls-6" points="34.54 46.44 35.35 46.91 35.35 46.8 34.54 46.33 34.54 46.44"/><polygon class="cls-4" points="35.35 46.91 35.61 46.76 35.61 46.65 35.35 46.8 35.35 46.91"/><polygon class="cls-5" points="35.61 46.65 34.8 46.18 34.54 46.33 35.35 46.8 35.61 46.65"/><polygon class="cls-4" points="35.64 45.08 35.96 44.9 35.96 44.79 35.64 44.97 35.64 45.08"/><polygon class="cls-6" points="35.28 44.88 35.64 45.08 35.64 44.97 35.28 44.76 35.28 44.88"/><polygon class="cls-5" points="35.6 44.58 35.28 44.76 35.64 44.97 35.96 44.79 35.6 44.58"/><polygon class="cls-4" points="34.34 45.84 34.66 45.65 34.66 45.54 34.34 45.72 34.34 45.84"/><polygon class="cls-6" points="33.98 45.63 34.34 45.84 34.34 45.72 33.98 45.52 33.98 45.63"/><polygon class="cls-5" points="34.66 45.54 34.3 45.33 33.98 45.52 34.34 45.72 34.66 45.54"/><polygon class="cls-4" points="33.82 45.54 34.14 45.35 34.14 45.24 33.82 45.42 33.82 45.54"/><polygon class="cls-6" points="33.46 45.33 33.82 45.54 33.82 45.42 33.46 45.22 33.46 45.33"/><polygon class="cls-5" points="33.46 45.22 33.82 45.42 34.14 45.24 33.78 45.03 33.46 45.22"/><polygon class="cls-6" points="34.76 44.58 35.12 44.78 35.12 44.67 34.76 44.46 34.76 44.58"/><polygon class="cls-4" points="35.12 44.78 35.44 44.6 35.44 44.48 35.12 44.67 35.12 44.78"/><polygon class="cls-5" points="35.08 44.28 34.76 44.46 35.12 44.67 35.44 44.48 35.08 44.28"/><polygon class="cls-6" points="34.21 44.26 34.57 44.46 34.57 44.35 34.21 44.14 34.21 44.26"/><polygon class="cls-4" points="34.57 44.46 34.89 44.28 34.89 44.16 34.57 44.35 34.57 44.46"/><polygon class="cls-5" points="34.21 44.14 34.57 44.35 34.89 44.16 34.53 43.96 34.21 44.14"/><polygon class="cls-6" points="34.84 45.13 35.2 45.34 35.2 45.23 34.84 45.02 34.84 45.13"/><polygon class="cls-4" points="35.2 45.34 35.52 45.15 35.52 45.04 35.2 45.23 35.2 45.34"/><polygon class="cls-5" points="35.2 45.23 35.52 45.04 35.16 44.83 34.84 45.02 35.2 45.23"/><polygon class="cls-6" points="32.55 45.3 33.36 45.77 33.36 45.65 32.55 45.18 32.55 45.3"/><polygon class="cls-4" points="33.36 45.77 33.62 45.62 33.62 45.5 33.36 45.65 33.36 45.77"/><polygon class="cls-5" points="33.36 45.65 33.62 45.5 32.81 45.03 32.55 45.18 33.36 45.65"/><polygon class="cls-4" points="34.68 45.04 35 44.85 35 44.74 34.68 44.92 34.68 45.04"/><polygon class="cls-6" points="34.32 44.83 34.68 45.04 34.68 44.92 34.32 44.72 34.32 44.83"/><polygon class="cls-5" points="34.64 44.53 34.32 44.72 34.68 44.92 35 44.74 34.64 44.53"/><polygon class="cls-6" points="33.9 45.07 34.26 45.28 34.26 45.17 33.9 44.96 33.9 45.07"/><polygon class="cls-4" points="34.26 45.28 34.58 45.1 34.58 44.98 34.26 45.17 34.26 45.28"/><polygon class="cls-5" points="34.58 44.98 34.22 44.78 33.9 44.96 34.26 45.17 34.58 44.98"/><polygon class="cls-6" points="33.53 45.86 34.34 46.33 34.34 46.22 33.53 45.75 33.53 45.86"/><polygon class="cls-4" points="34.34 46.33 34.6 46.18 34.6 46.07 34.34 46.22 34.34 46.33"/><polygon class="cls-5" points="33.53 45.75 34.34 46.22 34.6 46.07 33.79 45.6 33.53 45.75"/><polygon class="cls-4" points="34.78 45.58 35.1 45.4 35.1 45.28 34.78 45.47 34.78 45.58"/><polygon class="cls-6" points="34.42 45.38 34.78 45.58 34.78 45.47 34.42 45.26 34.42 45.38"/><polygon class="cls-5" points="34.74 45.08 34.42 45.26 34.78 45.47 35.1 45.28 34.74 45.08"/><polygon class="cls-6" points="33.34 44.75 33.7 44.96 33.7 44.85 33.34 44.64 33.34 44.75"/><polygon class="cls-4" points="33.7 44.96 34.02 44.78 34.02 44.66 33.7 44.85 33.7 44.96"/><polygon class="cls-5" points="33.7 44.85 34.02 44.66 33.66 44.46 33.34 44.64 33.7 44.85"/><polygon class="cls-4" points="37.01 44.88 37.85 44.39 37.85 44.28 37.01 44.76 37.01 44.88"/><polygon class="cls-6" points="36.65 44.67 37.01 44.88 37.01 44.76 36.65 44.56 36.65 44.67"/><polygon class="cls-5" points="37.01 44.76 37.85 44.28 37.49 44.07 36.65 44.56 37.01 44.76"/><polygon class="cls-4" points="45.59 41.17 46.17 40.83 46.17 40.72 45.59 41.05 45.59 41.17"/><polygon class="cls-6" points="45.23 40.96 45.59 41.17 45.59 41.05 45.23 40.85 45.23 40.96"/><polygon class="cls-5" points="45.59 41.05 46.17 40.72 45.81 40.51 45.23 40.85 45.59 41.05"/><polygon class="cls-4" points="46.34 40.73 46.92 40.4 46.92 40.29 46.34 40.62 46.34 40.73"/><polygon class="cls-6" points="45.98 40.53 46.34 40.73 46.34 40.62 45.98 40.41 45.98 40.53"/><polygon class="cls-5" points="46.92 40.29 46.56 40.08 45.98 40.41 46.34 40.62 46.92 40.29"/><polygon class="cls-6" points="37.6 45.61 37.75 45.7 37.75 45.58 37.6 45.5 37.6 45.61"/><polygon class="cls-6" points="37.71 45.26 37.86 45.35 37.86 45.23 37.71 45.15 37.71 45.26"/><polygon class="cls-4" points="37.75 45.7 38.01 45.55 38.01 45.43 37.75 45.58 37.75 45.7"/><polygon class="cls-4" points="38.1 45.49 38.37 45.34 38.37 45.23 38.1 45.38 38.1 45.49"/><polygon class="cls-6" points="38.01 45.43 38.1 45.49 38.1 45.38 37.96 45.29 37.96 45.4 38.01 45.43"/><polygon class="cls-5" points="37.96 45.29 38.1 45.38 38.37 45.23 38.32 45.2 38.22 45.14 38.12 45.2 37.96 45.29"/><polygon class="cls-5" points="37.96 45.4 37.96 45.29 37.86 45.35 37.96 45.4"/><polygon class="cls-4" points="37.86 45.35 37.96 45.29 38.12 45.2 38.12 45.08 37.86 45.23 37.86 45.35"/><polygon class="cls-5" points="37.71 45.15 37.86 45.23 38.12 45.08 37.97 45 37.71 45.15"/><polygon class="cls-4" points="38.72 45.13 38.72 45.02 38.46 45.17 38.46 45.28 38.72 45.13"/><polygon class="cls-5" points="38.46 45.17 38.72 45.02 38.58 44.93 38.32 45.08 38.46 45.17"/><polygon class="cls-6" points="38.46 45.28 38.46 45.17 38.32 45.08 38.32 45.2 38.37 45.23 38.46 45.28"/><polygon class="cls-5" points="37.86 45.35 37.6 45.5 37.75 45.58 38.01 45.43 37.96 45.4 37.86 45.35"/><polygon class="cls-6" points="42.42 39.29 42.78 39.49 42.78 39.38 42.42 39.17 42.42 39.29"/><polygon class="cls-4" points="42.78 39.49 43.36 39.16 43.36 39.05 42.78 39.38 42.78 39.49"/><polygon class="cls-5" points="42.42 39.17 42.78 39.38 43.36 39.05 43.01 38.84 42.42 39.17"/><polygon class="cls-4" points="41.38 40.3 41.96 39.97 41.96 39.85 41.38 40.19 41.38 40.3"/><polygon class="cls-6" points="41.02 40.09 41.38 40.3 41.38 40.19 41.02 39.98 41.02 40.09"/><polygon class="cls-5" points="41.96 39.85 41.6 39.65 41.02 39.98 41.38 40.19 41.96 39.85"/><polygon class="cls-6" points="44.76 39.99 45.12 40.2 45.12 40.09 44.76 39.88 44.76 39.99"/><polygon class="cls-4" points="45.12 40.2 45.99 39.7 45.99 39.58 45.12 40.09 45.12 40.2"/><polygon class="cls-5" points="45.99 39.58 45.63 39.38 44.76 39.88 45.12 40.09 45.99 39.58"/><polygon class="cls-6" points="37.35 44.91 37.71 45.11 37.71 45 37.35 44.79 37.35 44.91"/><polygon class="cls-4" points="37.71 45.11 38.55 44.63 38.55 44.51 37.71 45 37.71 45.11"/><polygon class="cls-5" points="38.2 44.31 37.35 44.79 37.71 45 38.55 44.51 38.2 44.31"/><polygon class="cls-4" points="37.23 46 37.54 45.81 37.54 45.7 37.23 45.88 37.23 46"/><polygon class="cls-6" points="36.87 45.79 37.23 46 37.23 45.88 36.87 45.68 36.87 45.79"/><polygon class="cls-5" points="37.23 45.88 37.54 45.7 37.19 45.49 36.87 45.68 37.23 45.88"/><polygon class="cls-4" points="42.08 39.9 42.66 39.56 42.66 39.45 42.08 39.78 42.08 39.9"/><polygon class="cls-5" points="42.08 39.78 42.66 39.45 42.3 39.24 41.72 39.58 42.08 39.78"/><polygon class="cls-6" points="42.08 39.78 41.72 39.58 41.72 39.69 42.08 39.9 42.08 39.78"/><polygon class="cls-6" points="44.71 40.66 45.07 40.87 45.07 40.75 44.71 40.55 44.71 40.66"/><polygon class="cls-4" points="45.07 40.87 45.65 40.53 45.65 40.42 45.07 40.75 45.07 40.87"/><polygon class="cls-5" points="45.07 40.75 45.65 40.42 45.29 40.21 44.71 40.55 45.07 40.75"/><polygon class="cls-4" points="40.27 42.28 40.27 42.17 39.69 42.51 39.69 42.62 40.27 42.28"/><polygon class="cls-5" points="40.27 42.17 39.91 41.96 39.33 42.3 39.69 42.51 40.27 42.17"/><polygon class="cls-6" points="39.33 42.3 39.33 42.41 39.69 42.62 39.69 42.51 39.33 42.3"/><polygon class="cls-6" points="42.18 40.76 42.54 40.97 42.54 40.86 42.18 40.65 42.18 40.76"/><polygon class="cls-4" points="42.54 40.97 43.12 40.64 43.12 40.52 42.54 40.86 42.54 40.97"/><polygon class="cls-5" points="42.54 40.86 43.12 40.52 42.76 40.31 42.18 40.65 42.54 40.86"/><polygon class="cls-6" points="37.09 42.66 36.73 42.46 36.73 42.57 37.09 42.78 37.09 42.66"/><polygon class="cls-5" points="36.73 42.46 37.09 42.66 37.67 42.33 37.32 42.12 36.73 42.46"/><polygon class="cls-4" points="37.67 42.33 37.09 42.66 37.09 42.78 37.67 42.44 37.67 42.33"/><polygon class="cls-6" points="35.64 43.5 35.28 43.3 35.28 43.41 35.64 43.62 35.64 43.5"/><polygon class="cls-5" points="35.28 43.3 35.64 43.5 36.27 43.14 35.91 42.93 35.28 43.3"/><polygon class="cls-4" points="36.27 43.14 35.64 43.5 35.64 43.62 36.27 43.25 36.27 43.14"/><polygon class="cls-6" points="38.53 41.84 38.17 41.63 38.17 41.74 38.53 41.95 38.53 41.84"/><polygon class="cls-5" points="38.17 41.63 38.53 41.84 39.11 41.5 38.75 41.29 38.17 41.63"/><polygon class="cls-4" points="39.11 41.5 38.53 41.84 38.53 41.95 39.11 41.61 39.11 41.5"/><polygon class="cls-4" points="41.26 40.26 40.68 40.59 40.68 40.71 41.26 40.37 41.26 40.26"/><polygon class="cls-5" points="40.68 40.59 41.26 40.26 40.9 40.05 40.32 40.39 40.68 40.59"/><polygon class="cls-6" points="40.68 40.59 40.32 40.39 40.32 40.5 40.68 40.71 40.68 40.59"/><polygon class="cls-5" points="39.81 41.1 39.45 40.89 38.87 41.23 39.23 41.43 39.81 41.1"/><polygon class="cls-4" points="39.81 41.1 39.23 41.43 39.23 41.55 39.81 41.21 39.81 41.1"/><polygon class="cls-6" points="39.23 41.43 38.87 41.23 38.87 41.34 39.23 41.55 39.23 41.43"/><polygon class="cls-4" points="36.97 42.73 36.39 43.07 36.39 43.18 36.97 42.85 36.97 42.73"/><polygon class="cls-5" points="36.39 43.07 36.97 42.73 36.62 42.53 36.03 42.86 36.39 43.07"/><polygon class="cls-6" points="36.39 43.07 36.03 42.86 36.03 42.98 36.39 43.18 36.39 43.07"/><polygon class="cls-5" points="40.51 40.69 40.15 40.48 39.57 40.82 39.93 41.03 40.51 40.69"/><polygon class="cls-4" points="40.51 40.69 39.93 41.03 39.93 41.14 40.51 40.8 40.51 40.69"/><polygon class="cls-6" points="39.93 41.03 39.57 40.82 39.57 40.93 39.93 41.14 39.93 41.03"/><polygon class="cls-4" points="38.42 41.9 37.84 42.23 37.84 42.34 38.42 42.01 38.42 41.9"/><polygon class="cls-5" points="37.84 42.23 38.42 41.9 38.07 41.69 37.48 42.02 37.84 42.23"/><polygon class="cls-6" points="37.84 42.23 37.48 42.02 37.48 42.14 37.84 42.34 37.84 42.23"/><path class="cls-4" d="M47.27,39.87V40l.29-.17V39.7Z"/><polygon class="cls-6" points="47.27 39.98 47.27 39.87 46.37 39.35 46.37 39.46 47.27 39.98"/><path class="cls-16" d="M47.27,40l.29-.17a3.24,3.24,0,0,1,.35.21l.36.21L36,47.31l-.36-.21L31.42,45l12.91-7.45,1.61,1.1.76.52,0,0-.3.17v.11Zm-1.8,1.14-.36-.2-.58.33v.12l.36.2v-.11l.48-.28.1.06Zm-.95-2V39l-.36-.21-.43.25v.11l.36.21Zm-8,6.08V45.1l-.36-.21-.32.18v.12l.36.2Zm-.31.82v-.11l-.36-.21-.32.18V46l.36.2Zm-.55-.32V45.6l-.36-.21-.32.18v.12l.36.2Zm6.88-5.54-.36-.2-.58.33v.12l.36.2.58-.33Zm-6.77,6.11v-.11L35.39,46l-.32.19v.11l.36.21Zm.93-.08L36.32,46l-.32.19v.11l.36.21.32-.19ZM37.1,46l-.36-.2-.31.18V46l.35.21.32-.18Zm-.86.5-.36-.2-.32.18v.11l.36.21.32-.18Zm8-5.11v-.11L43.89,41l-.58.34v.11l.35.21Zm2.45-1.41v-.11l-.36-.21-.87.5v.12l.36.2ZM36.61,45.78v-.11l-.35-.21-.32.19v.11l.36.21Zm.44-.25v-.11l-.35-.21-.32.18v.12l.36.2ZM44,38.81V38.7l-.36-.21-.43.25v.11l.35.21ZM35.2,46v-.11l-.36-.21-.32.19v.11l.36.21Zm.86-.5v-.11l-.36-.21-.32.19v.11l.36.21Zm-2.48-.54-.36-.21-.32.19V45l.36.21.32-.19Zm.87-.39v-.11l-.36-.21-.32.19v.11l.36.21Zm11-6-.9-.52-.29.17v.12l.89.51.3-.17Zm-9.87,8.27v-.11l-.81-.47-.26.15v.11l.81.47Zm.35-2-.36-.21-.32.18v.12l.36.2L36,44.9Zm-1.3.75-.36-.21-.32.19v.11l.36.21.32-.19Zm-.52-.3L33.78,45l-.32.19v.11l.36.21.32-.19Zm1.3-.64v-.11l-.36-.21-.32.18v.12l.36.2Zm-.55-.32v-.11L34.53,44l-.32.18v.12l.36.2Zm.63.87V45l-.36-.21-.32.19v.11l.36.21Zm-1.9.47V45.5L32.81,45l-.26.15v.12l.81.47ZM35,44.74l-.36-.21-.32.19v.11l.36.21.32-.19Zm-.42.36V45l-.36-.2L33.9,45v.11l.36.21Zm0,1.08v-.11l-.81-.47-.26.15v.11l.81.47Zm.5-.89-.36-.21-.32.18v.12l.36.2.32-.18ZM34,44.78v-.12l-.36-.2-.32.18v.11l.36.21Zm3.83-.5-.36-.21-.84.49v.11l.36.21.84-.49Zm8.32-3.56-.36-.21-.58.34V41l.36.21.58-.34Zm.75-.43-.36-.21-.58.34v.11l.36.21.58-.34ZM38,45.55v-.12l.09.06.27-.15v-.11l.09.05.26-.15V45l-.14-.09-.26.15v.12l-.1-.06-.1.06v-.12L38,45l-.26.15v.11l.15.09-.26.15v.11l.15.09Zm5.35-6.39V39l-.35-.2-.58.33v.12l.35.2Zm-1.4.69-.36-.2L41,40v.12l.36.2L42,40Zm4-.15v-.12l-.36-.2-.87.5V40l.36.21Zm-7.44,4.93v-.12l-.35-.2-.85.48v.12l.36.2Zm-1,1.07-.35-.21-.32.19v.11l.35.21.32-.19Zm5.12-6.25-.36-.21-.58.34v.11l.36.21.58-.34Zm3,1.08v-.11l-.36-.21-.58.34v.11l.36.21ZM39.91,42l-.58.34v.11l.36.21.58-.34v-.11Zm3.21-1.32v-.12l-.36-.2-.58.33v.11l.36.21Zm-6.38,1.82v.11l.35.21.58-.34v-.11l-.35-.21Zm-1.46.95.36.21.63-.37v-.11l-.36-.21-.63.37Zm2.89-1.78v.11l.36.21.58-.34V41.5l-.36-.21Zm2.15-1.13.36.21.58-.34v-.11l-.36-.21-.58.34Zm-1.45.72v.12l.36.2.58-.33V41.1l-.36-.21ZM36,43l.36.2.58-.33v-.12l-.36-.2-.58.33Zm3.54-2.16v.11l.36.21.58-.34v-.11l-.36-.21ZM37.49,42v.12l.35.2.58-.33V41.9l-.35-.21Zm9-2.81v-.12l-.9-.51-.29.17v.11l.9.52Zm-4.68,2.17.58-.34v-.11l-.36-.21-.58.34v.11Zm1,.13V41.4l-.36-.21-.58.34v.11l.36.21Zm-.24-.28.36.21.58-.33V41l-.36-.2-.58.33Zm-.51.71v-.11l-.36-.21-.58.34v.11l.36.21Zm-5.5,2.47.84-.49v-.11l-.36-.21-.84.49v.11Zm4.48-3.29V41l-.36-.21-.58.34v.11l.36.21ZM38.62,42l-.58.33v.12l.36.2.58-.33v-.11ZM37,43.5l.58-.33v-.12l-.36-.2-.58.33v.12Zm1.25.17-.58.33v.11l.35.21.58-.33v-.12Zm-.43-.47-.58.33v.11l.36.21.58-.33V43.4Zm1.31-.93.58-.34v-.11l-.36-.21-.58.34v.11Zm.57.56-.58.33v.12l.36.2.58-.33V43Zm2.17-2.14v-.11l-.36-.21-.58.34v.11l.36.21Zm.61,1.17-.58.33v.12l.36.2.58-.33v-.11Zm-3.21.5-.58.33v.12L39,43l.58-.33v-.11ZM41,42l-.58.33v.12l.36.2.58-.33v-.11Zm.64-.56v-.11l-.36-.21-.58.34v.11l.36.21Zm.42,1-.36-.21-.58.34v.11l.36.21.58-.34ZM40,43.7l-.36-.2-.58.33V44l.36.2.58-.33Zm5-3.4v-.12l-.36-.2-.58.33v.11l.36.21Zm-.71.4v-.11l-.35-.21-.58.34v.11l.35.21Zm-6,2.06v-.11l-.36-.21-.58.34v.11l.36.21Zm.6.24-.36-.21-.58.34v.11l.36.21.58-.34Zm.43,1.11-.36-.21-.58.34v.11l.36.21.58-.34Zm0-.64-.36-.21-.58.34v.11l.36.21.58-.34Zm.35,1.15v-.09l.08,0,.58-.34v-.11l-.36-.21-.58.34v.08l-.07,0-.58.33v.12L39,45ZM41,43.73l-.36-.2-.58.33V44l.36.21.58-.33Zm-.24-.35v-.11l-.36-.21-.58.34v.11l.36.21Zm3.09-1.29-.35-.21-2.62,1.51v.11l.36.21L43.8,42.2ZM45,40.94v-.12l-.36-.2L44,41v.11l.36.21Zm-3.56,1.94L41,42.67l-.58.33v.12l.36.2.58-.33Zm1.83-3v-.11l-.36-.21-.58.34V40l.36.21ZM41,41.77l-.36-.21-.58.33V42l.36.2.58-.33Zm-.28,1v-.11l-.36-.21-.58.34v.11l.36.21Zm-3.86.71-.36-.21-.63.37v.11l.36.21.63-.37Zm3.53-2L40,41.21l-.58.33v.12l.35.2.58-.33Zm4-2v.11l.36.21.87-.5v-.12l-.36-.2Zm-1.09,1.16.58-.34v-.11l-.36-.21-.58.34v.11Zm.59,1.09v.11l.36.21.58-.34v-.11l-.36-.21Zm-.27-2.5-.58.33v.12l.36.2.58-.33v-.12Zm.6.35-.58.33V40l.36.21.58-.33v-.12ZM43,42.08l.58-.33v-.12l-.36-.2-.58.33v.11Z"/><polygon class="cls-5" points="46.67 39.18 46.37 39.35 47.27 39.87 47.56 39.7 46.7 39.2 46.67 39.18"/><polygon class="cls-9" points="48.27 40.23 36.01 47.31 35.69 47.67 48.6 40.22 48.27 40.23"/><polygon class="cls-4" points="48.6 40.22 45.94 38.68 46.7 39.2 47.56 39.7 47.56 39.79 47.91 40.02 48.27 40.23 48.6 40.22"/><polygon class="cls-6" points="31.42 45.2 35.69 47.67 36.01 47.31 35.65 47.1 31.42 45.2"/><polygon class="cls-5" points="31.42 45.03 31.42 45.2 35.65 47.1 31.42 45.03"/><polygon class="cls-6" points="46.23 39.26 45.33 38.75 45.33 38.86 46.23 39.38 46.23 39.26"/><polygon class="cls-5" points="45.33 38.75 46.23 39.26 46.52 39.09 45.62 38.58 45.33 38.75"/><polygon class="cls-4" points="46.23 39.26 46.23 39.38 46.52 39.21 46.52 39.09 46.23 39.26"/><polygon class="cls-6" points="41.48 41.05 41.48 41.17 41.84 41.38 41.84 41.26 41.48 41.05"/><polygon class="cls-5" points="41.48 41.05 41.84 41.26 42.42 40.93 42.06 40.72 41.48 41.05"/><polygon class="cls-4" points="41.84 41.26 41.84 41.38 42.42 41.04 42.42 40.93 41.84 41.26"/><polygon class="cls-4" points="42.26 41.73 42.26 41.85 42.84 41.51 42.84 41.4 42.26 41.73"/><polygon class="cls-6" points="42.26 41.85 42.26 41.73 41.9 41.53 41.9 41.64 42.26 41.85"/><polygon class="cls-5" points="41.9 41.53 42.26 41.73 42.84 41.4 42.48 41.19 41.9 41.53"/><polygon class="cls-5" points="43.19 40.79 42.6 41.12 42.96 41.33 43.54 40.99 43.19 40.79"/><polygon class="cls-6" points="42.6 41.12 42.6 41.23 42.96 41.44 42.96 41.33 42.6 41.12"/><polygon class="cls-4" points="42.96 41.33 42.96 41.44 43.54 41.11 43.54 40.99 42.96 41.33"/><polygon class="cls-6" points="41.51 42.17 41.15 41.96 41.15 42.07 41.51 42.28 41.51 42.17"/><polygon class="cls-5" points="41.15 41.96 41.51 42.17 42.09 41.83 41.73 41.62 41.15 41.96"/><polygon class="cls-4" points="41.51 42.17 41.51 42.28 42.09 41.94 42.09 41.83 41.51 42.17"/><polygon class="cls-4" points="36.59 44.29 36.59 44.41 37.43 43.92 37.43 43.81 36.59 44.29"/><polygon class="cls-6" points="36.59 44.41 36.59 44.29 36.23 44.09 36.23 44.2 36.59 44.41"/><polygon class="cls-5" points="36.59 44.29 37.43 43.81 37.07 43.6 36.23 44.09 36.59 44.29"/><polygon class="cls-6" points="40.48 41.35 40.13 41.14 40.13 41.25 40.48 41.46 40.48 41.35"/><polygon class="cls-5" points="40.13 41.14 40.48 41.35 41.06 41.01 40.71 40.8 40.13 41.14"/><polygon class="cls-4" points="40.48 41.35 40.48 41.46 41.06 41.13 41.06 41.01 40.48 41.35"/><polygon class="cls-4" points="38.4 42.55 38.4 42.66 38.98 42.33 38.98 42.22 38.4 42.55"/><polygon class="cls-6" points="38.4 42.66 38.4 42.55 38.04 42.34 38.04 42.46 38.4 42.66"/><polygon class="cls-5" points="38.4 42.55 38.98 42.22 38.62 42.01 38.04 42.34 38.4 42.55"/><polygon class="cls-4" points="36.95 43.39 36.95 43.5 37.53 43.17 37.53 43.05 36.95 43.39"/><polygon class="cls-6" points="36.95 43.5 36.95 43.39 36.59 43.18 36.59 43.3 36.95 43.5"/><polygon class="cls-5" points="37.17 42.85 36.59 43.18 36.95 43.39 37.53 43.05 37.17 42.85"/><polygon class="cls-4" points="38.55 43.87 37.97 44.21 37.97 44.32 38.55 43.99 38.55 43.87"/><polygon class="cls-5" points="37.97 44.21 38.55 43.87 38.2 43.67 37.62 44 37.97 44.21"/><polygon class="cls-6" points="37.97 44.32 37.97 44.21 37.62 44 37.62 44.11 37.97 44.32"/><polygon class="cls-4" points="38.13 43.4 37.55 43.74 37.55 43.85 38.13 43.52 38.13 43.4"/><polygon class="cls-5" points="37.55 43.74 38.13 43.4 37.77 43.2 37.19 43.53 37.55 43.74"/><polygon class="cls-6" points="37.55 43.85 37.55 43.74 37.19 43.53 37.19 43.64 37.55 43.85"/><polygon class="cls-6" points="38.72 41.95 38.72 42.06 39.08 42.27 39.08 42.16 38.72 41.95"/><polygon class="cls-4" points="39.08 42.16 39.08 42.27 39.66 41.93 39.66 41.82 39.08 42.16"/><polygon class="cls-5" points="39.3 41.61 38.72 41.95 39.08 42.16 39.66 41.82 39.3 41.61"/><polygon class="cls-4" points="40.01 43.15 40.01 43.04 39.42 43.37 39.42 43.48 40.01 43.15"/><polygon class="cls-5" points="40.01 43.04 39.65 42.83 39.07 43.16 39.42 43.37 40.01 43.04"/><polygon class="cls-6" points="39.42 43.48 39.42 43.37 39.07 43.16 39.07 43.28 39.42 43.48"/><polygon class="cls-6" points="41.23 40.91 40.88 40.71 40.88 40.82 41.23 41.03 41.23 40.91"/><polygon class="cls-5" points="40.88 40.71 41.23 40.91 41.81 40.58 41.46 40.37 40.88 40.71"/><polygon class="cls-4" points="41.23 40.91 41.23 41.03 41.81 40.69 41.81 40.58 41.23 40.91"/><polygon class="cls-4" points="42.79 42.18 42.79 42.07 42.21 42.4 42.21 42.51 42.79 42.18"/><polygon class="cls-5" points="42.44 41.86 41.85 42.19 42.21 42.4 42.79 42.07 42.44 41.86"/><polygon class="cls-6" points="41.85 42.19 41.85 42.31 42.21 42.51 42.21 42.4 41.85 42.19"/><polygon class="cls-4" points="39.58 42.56 39 42.9 39 43.01 39.58 42.68 39.58 42.56"/><polygon class="cls-5" points="39 42.9 39.58 42.56 39.22 42.36 38.64 42.69 39 42.9"/><polygon class="cls-6" points="39 43.01 39 42.9 38.64 42.69 38.64 42.81 39 43.01"/><polygon class="cls-4" points="41.39 42.24 40.81 42.57 40.81 42.68 41.39 42.35 41.39 42.24"/><polygon class="cls-5" points="40.81 42.57 41.39 42.24 41.03 42.03 40.45 42.36 40.81 42.57"/><polygon class="cls-6" points="40.81 42.68 40.81 42.57 40.45 42.36 40.45 42.48 40.81 42.68"/><polygon class="cls-6" points="41.09 41.7 40.73 41.49 40.73 41.6 41.09 41.81 41.09 41.7"/><polygon class="cls-5" points="40.73 41.49 41.09 41.7 41.67 41.36 41.31 41.15 40.73 41.49"/><polygon class="cls-4" points="41.09 41.7 41.09 41.81 41.67 41.47 41.67 41.36 41.09 41.7"/><polygon class="cls-4" points="41.51 42.92 42.09 42.58 42.09 42.47 41.51 42.81 41.51 42.92"/><polygon class="cls-6" points="41.15 42.71 41.51 42.92 41.51 42.81 41.15 42.6 41.15 42.71"/><polygon class="cls-5" points="42.09 42.47 41.73 42.26 41.15 42.6 41.51 42.81 42.09 42.47"/><polygon class="cls-4" points="39.38 44.15 39.96 43.82 39.96 43.7 39.38 44.04 39.38 44.15"/><polygon class="cls-6" points="39.02 43.95 39.38 44.15 39.38 44.04 39.02 43.83 39.02 43.95"/><polygon class="cls-5" points="39.02 43.83 39.38 44.04 39.96 43.7 39.6 43.5 39.02 43.83"/><polygon class="cls-6" points="44.01 40.42 44.37 40.63 44.37 40.52 44.01 40.31 44.01 40.42"/><polygon class="cls-4" points="44.37 40.63 44.95 40.3 44.95 40.18 44.37 40.52 44.37 40.63"/><polygon class="cls-5" points="44.59 39.98 44.01 40.31 44.37 40.52 44.95 40.18 44.59 39.98"/><polygon class="cls-6" points="43.31 40.83 43.66 41.04 43.66 40.92 43.31 40.72 43.31 40.83"/><polygon class="cls-4" points="43.66 41.04 44.24 40.7 44.24 40.59 43.66 40.92 43.66 41.04"/><polygon class="cls-5" points="43.89 40.38 43.31 40.72 43.66 40.92 44.24 40.59 43.89 40.38"/><polygon class="cls-6" points="37.29 42.89 37.65 43.1 37.65 42.98 37.29 42.78 37.29 42.89"/><polygon class="cls-4" points="37.65 43.1 38.23 42.76 38.23 42.65 37.65 42.98 37.65 43.1"/><polygon class="cls-5" points="38.23 42.65 37.87 42.44 37.29 42.78 37.65 42.98 38.23 42.65"/><polygon class="cls-4" points="38.25 43.45 38.83 43.11 38.83 43 38.25 43.33 38.25 43.45"/><polygon class="cls-6" points="37.89 43.24 38.25 43.45 38.25 43.33 37.89 43.13 37.89 43.24"/><polygon class="cls-5" points="38.47 42.79 37.89 43.13 38.25 43.33 38.83 43 38.47 42.79"/><polygon class="cls-4" points="38.67 44.56 39.26 44.22 39.26 44.11 38.67 44.44 38.67 44.56"/><polygon class="cls-6" points="38.32 44.35 38.67 44.56 38.67 44.44 38.32 44.24 38.32 44.35"/><polygon class="cls-5" points="38.9 43.9 38.32 44.24 38.67 44.44 39.26 44.11 38.9 43.9"/><polygon class="cls-4" points="38.67 43.92 39.26 43.58 39.26 43.47 38.67 43.8 38.67 43.92"/><polygon class="cls-6" points="38.32 43.71 38.67 43.92 38.67 43.8 38.32 43.6 38.32 43.71"/><polygon class="cls-5" points="38.9 43.26 38.32 43.6 38.67 43.8 39.26 43.47 38.9 43.26"/><polygon class="cls-6" points="38.67 44.74 39.03 44.95 39.03 44.84 38.67 44.63 38.67 44.74"/><polygon class="cls-4" points="39.03 44.95 39.61 44.62 39.61 44.53 39.61 44.5 39.03 44.84 39.03 44.95"/><polygon class="cls-6" points="39.61 44.53 39.69 44.58 39.69 44.46 39.33 44.26 39.33 44.34 39.61 44.5 39.61 44.53"/><polygon class="cls-4" points="40.27 44.24 40.27 44.13 39.69 44.46 39.69 44.58 40.27 44.24"/><polygon class="cls-5" points="39.69 44.46 40.27 44.13 39.91 43.92 39.33 44.26 39.69 44.46"/><polygon class="cls-5" points="39.03 44.84 39.61 44.5 39.33 44.34 39.26 44.3 38.67 44.63 39.03 44.84"/><polygon class="cls-4" points="40.37 44.18 40.95 43.84 40.95 43.73 40.37 44.07 40.37 44.18"/><polygon class="cls-6" points="40.01 43.97 40.37 44.18 40.37 44.07 40.01 43.86 40.01 43.97"/><polygon class="cls-5" points="40.59 43.52 40.01 43.86 40.37 44.07 40.95 43.73 40.59 43.52"/><polygon class="cls-6" points="39.77 43.51 40.13 43.72 40.13 43.61 39.77 43.4 39.77 43.51"/><polygon class="cls-4" points="40.13 43.72 40.71 43.38 40.71 43.27 40.13 43.61 40.13 43.72"/><polygon class="cls-5" points="39.77 43.4 40.13 43.61 40.71 43.27 40.35 43.06 39.77 43.4"/><polygon class="cls-4" points="41.19 43.71 43.8 42.2 43.8 42.09 41.19 43.59 41.19 43.71"/><polygon class="cls-6" points="40.83 43.5 41.19 43.71 41.19 43.59 40.83 43.39 40.83 43.5"/><polygon class="cls-5" points="41.19 43.59 43.8 42.09 43.45 41.88 40.83 43.39 41.19 43.59"/><polygon class="cls-6" points="44.01 41.06 44.37 41.27 44.37 41.16 44.01 40.95 44.01 41.06"/><polygon class="cls-4" points="44.37 41.27 44.95 40.94 44.95 40.82 44.37 41.16 44.37 41.27"/><polygon class="cls-5" points="44.01 40.95 44.37 41.16 44.95 40.82 44.59 40.62 44.01 40.95"/><polygon class="cls-4" points="40.81 43.32 41.39 42.99 41.39 42.88 40.81 43.21 40.81 43.32"/><polygon class="cls-6" points="40.45 43.12 40.81 43.32 40.81 43.21 40.45 43 40.45 43.12"/><polygon class="cls-5" points="40.81 43.21 41.39 42.88 41.03 42.67 40.45 43 40.81 43.21"/><polygon class="cls-6" points="42.28 40.01 42.64 40.22 42.64 40.1 42.28 39.9 42.28 40.01"/><polygon class="cls-4" points="42.64 40.22 43.22 39.88 43.22 39.77 42.64 40.1 42.64 40.22"/><polygon class="cls-5" points="43.22 39.77 42.86 39.56 42.28 39.9 42.64 40.1 43.22 39.77"/><polygon class="cls-4" points="40.39 42.21 40.97 41.88 40.97 41.77 40.39 42.1 40.39 42.21"/><polygon class="cls-6" points="40.03 42.01 40.39 42.21 40.39 42.1 40.03 41.89 40.03 42.01"/><polygon class="cls-5" points="40.39 42.1 40.97 41.77 40.61 41.56 40.03 41.89 40.39 42.1"/><polygon class="cls-6" points="39.75 42.88 40.11 43.09 40.11 42.98 39.75 42.77 39.75 42.88"/><polygon class="cls-4" points="40.11 43.09 40.69 42.75 40.69 42.64 40.11 42.98 40.11 43.09"/><polygon class="cls-5" points="39.75 42.77 40.11 42.98 40.69 42.64 40.33 42.43 39.75 42.77"/><polygon class="cls-4" points="36.2 43.94 36.83 43.57 36.83 43.46 36.2 43.82 36.2 43.94"/><polygon class="cls-6" points="35.84 43.73 36.2 43.94 36.2 43.82 35.84 43.62 35.84 43.73"/><polygon class="cls-5" points="36.47 43.25 35.84 43.62 36.2 43.82 36.83 43.46 36.47 43.25"/><polygon class="cls-4" points="39.78 41.87 40.36 41.53 40.36 41.42 39.78 41.75 39.78 41.87"/><polygon class="cls-6" points="39.42 41.66 39.78 41.87 39.78 41.75 39.42 41.55 39.42 41.66"/><polygon class="cls-5" points="39.42 41.55 39.78 41.75 40.36 41.42 40.01 41.21 39.42 41.55"/><polygon class="cls-5" points="45.56 39.11 45.2 38.91 44.33 39.41 44.69 39.62 45.56 39.11"/><polygon class="cls-4" points="45.56 39.23 45.56 39.11 44.69 39.62 44.69 39.73 45.56 39.23"/><polygon class="cls-6" points="44.33 39.41 44.33 39.52 44.69 39.73 44.69 39.62 44.33 39.41"/><polygon class="cls-6" points="42.88 40.25 42.88 40.36 43.24 40.57 43.24 40.45 42.88 40.25"/><polygon class="cls-5" points="43.46 39.91 42.88 40.25 43.24 40.45 43.82 40.12 43.46 39.91"/><polygon class="cls-4" points="43.24 40.45 43.24 40.57 43.82 40.23 43.82 40.12 43.24 40.45"/><polygon class="cls-5" points="44.77 41.53 44.41 41.32 43.83 41.66 44.19 41.87 44.77 41.53"/><polygon class="cls-4" points="44.77 41.64 44.77 41.53 44.19 41.87 44.19 41.98 44.77 41.64"/><polygon class="cls-6" points="44.19 41.98 44.19 41.87 43.83 41.66 43.83 41.77 44.19 41.98"/><polygon class="cls-4" points="43.92 39.48 43.92 39.37 43.34 39.7 43.34 39.81 43.92 39.48"/><polygon class="cls-5" points="43.92 39.37 43.56 39.16 42.98 39.49 43.34 39.7 43.92 39.37"/><polygon class="cls-6" points="43.34 39.81 43.34 39.7 42.98 39.49 42.98 39.61 43.34 39.81"/><polygon class="cls-4" points="44.52 39.83 44.52 39.71 43.94 40.05 43.94 40.16 44.52 39.83"/><polygon class="cls-5" points="44.52 39.71 44.16 39.51 43.58 39.84 43.94 40.05 44.52 39.71"/><polygon class="cls-6" points="43.94 40.05 43.58 39.84 43.58 39.95 43.94 40.16 43.94 40.05"/><polygon class="cls-6" points="42.6 41.76 42.6 41.87 42.96 42.08 42.96 41.97 42.6 41.76"/><polygon class="cls-5" points="43.54 41.63 43.19 41.43 42.6 41.76 42.96 41.97 43.54 41.63"/><polygon class="cls-4" points="43.54 41.75 43.54 41.63 42.96 41.97 42.96 42.08 43.54 41.75"/><polygon class="cls-19" points="38.3 46.58 35.38 45.84 32.93 45.54 33.35 46.22 39.69 49.97 41.97 48.65 38.3 46.58"/><path class="cls-20" d="M61.56,53.64a5.87,5.87,0,0,1,.24,4.52,6.22,6.22,0,0,1-3.31,3.48l-1.73-5.38-.19-1.85Z"/><path class="cls-8" d="M43,67.72a3,3,0,0,0-.34-1.58l-1.52-1.2-.52.57c-1.6.26-4.77-.5-5.6-.05-.48.26,1.83,2.54,2.86,2.57a6,6,0,0,1,2.18.37l-.07.27s1.52.94,2.39.3A1.48,1.48,0,0,0,43,67.72Z"/><path class="cls-20" d="M57.66,54.19l-1.42,5.29,2.85-4.24C58.71,55,58.22,54.59,57.66,54.19Z"/><path class="cls-20" d="M43.89,58.34l10.7-6.18c-2.7-1.62-5.64-2.9-6.7-1.64-4.06,4.81-7.28,13.7-7.54,14.57-.15.51-.28.79-.1,1.1a2.72,2.72,0,0,0,.87.91c.71.47,1.44.61,1.65.31l1.1-1.66c.54-.83,2.13-3.25,3.55-5.37Z"/><path class="cls-20" d="M58.12,53.46c-.65,0-1.57-.08-2.61-.09A11.84,11.84,0,0,0,58.12,56Z"/><path class="cls-9" d="M42,70.87a3,3,0,0,0-.36-1.57l-1.54-1.17-.51.58c-1.59.28-4.78-.42-5.6.05-.47.26,1.87,2.5,2.91,2.51a6.2,6.2,0,0,1,2.18.33l-.07.28s1.54.91,2.4.26A1.46,1.46,0,0,0,42,70.87Z"/><path class="cls-8" d="M41.43,72.14A1.46,1.46,0,0,0,42,70.87a3,3,0,0,0-.36-1.57l-1.54-1.17-.51.58a4.67,4.67,0,0,1-.78.06,5.28,5.28,0,0,1,1.28,3.54A1.6,1.6,0,0,0,41.43,72.14Z"/><path class="cls-14" d="M55.86,54.63S44.52,49.15,43,52.12c-2.88,5.6-4,15-4.09,15.88,0,.53-.09.83.15,1.1a2.7,2.7,0,0,0,1.05.69c.8.3,1.54.27,1.67-.07l.71-1.86c.66-1.78,3.78-10.24,4-10.1a43,43,0,0,0,8.73,4.48c4.07,1,5.7-3.31,5.7-3.31Z"/><path class="cls-20" d="M60.87,58.93l-1.33-1.15c-.89.18-2.25.47-4.14.91-3.75.87-6.3-2.23-8.65-3.08s-2,.44-3,3.88c-.83,2.76-2.81,8.27-3.55,10.33.76.27,1.46.23,1.58-.1l.71-1.86c.66-1.78,3.78-10.24,4-10.1a58.66,58.66,0,0,0,8.73,5.51C61.26,65.08,60.87,58.93,60.87,58.93Z"/><path class="cls-20" d="M52.56,53.2a10.9,10.9,0,0,0,7.11,7.64,6.7,6.7,0,0,0,1.2-1.91l-5-4.3S54.45,54,52.56,53.2Z"/><polygon class="cls-5" points="58.49 53.35 55.52 51.63 43.89 58.34 54.85 64.67 57.77 53.77 58.49 53.35"/><path class="cls-16" d="M68.13,52.38s-8.5-4.91-8.5-4.91L59,47.8s-.34.45.3,1.06,5,2.92,7,4.55a2.55,2.55,0,0,0,1.15,1.9,1.24,1.24,0,0,0,1.73-1A2.55,2.55,0,0,0,68.13,52.38Z"/><path class="cls-9" d="M67.54,52.71l-8.49-4.9c-.07.07-.31.47.29,1s5,2.92,7,4.55a2.58,2.58,0,0,0,1.1,1.87c.67.42,1.22.11,1.19-.68A2.58,2.58,0,0,0,67.54,52.71Z"/><path class="cls-20" d="M61.56,53.64a5.87,5.87,0,0,1,.24,4.52,6.22,6.22,0,0,1-3.31,3.48l-1.73-5.38-.19-1.85Z"/><path class="cls-20" d="M57.66,54.19l-1.42,5.29,2.85-4.24C58.71,55,58.22,54.59,57.66,54.19Z"/><path class="cls-20" d="M45.71,57.29l12.35-3.61c-2.7-1.62-9.11-4.42-10.17-3.16a27.21,27.21,0,0,0-2.18,3.06Z"/><path class="cls-20" d="M58.12,53.46c-.65,0-1.57-.08-2.61-.09A11.84,11.84,0,0,0,58.12,56Z"/><path class="cls-14" d="M55.86,54.63s-6.31-3.05-10.15-3.37v5.87a.16.16,0,0,1,.09.06,4.25,4.25,0,0,1,.53.42l.15.15.05,0,0,0,0,0s.19,0,.19.06a44.56,44.56,0,0,0,8.38,4.34c4.07,1,5.7-3.31,5.7-3.31Z"/><path class="cls-20" d="M60.87,58.93l-1.33-1.15c-.89.18-2.25.47-4.14.91-3.75.87-6.3-2.23-8.65-3.08a3.47,3.47,0,0,0-1-.25v1.92s8.37,5.67,9.46,6C61.26,65.08,60.87,58.93,60.87,58.93Z"/><path class="cls-20" d="M52.56,53.2a10.9,10.9,0,0,0,7.11,7.64,6.7,6.7,0,0,0,1.2-1.91l-5-4.3S54.45,54,52.56,53.2Z"/><path class="cls-21" d="M54.67,37s.66,2.43-.27,3.8,5.48-.08,5.48-.08-1.1-3.78-2.12-4.69S54.67,37,54.67,37Z"/><path class="cls-21" d="M58.05,34.43c-.35,1.94-1.82,3.29-3.27,3s-2.34-2.05-2-4,1.82-3.29,3.27-3S58.41,32.49,58.05,34.43Z"/><path class="cls-22" d="M58.05,34.43a4.4,4.4,0,0,0,.07-1.19l-3.66-2.45a3.9,3.9,0,0,0-1.6,2.38,5.88,5.88,0,0,0,1,1.17,5.1,5.1,0,0,1,.93,3.11C56.23,37.72,57.7,36.37,58.05,34.43Z"/><path class="cls-22" d="M56.17,41.29a35.49,35.49,0,0,0,3.71-.62s-1.1-3.78-2.12-4.69c-.72-.65-2,.12-2.65.61A20.73,20.73,0,0,1,56.17,41.29Z"/><path class="cls-4" d="M58.25,30.38a3.27,3.27,0,0,0-1.94-.82c-2.61-.44-4.39-.26-3.61,2.24a3.68,3.68,0,0,0,1.1,1.67c-.08.65-.11,1.51.26,1.74s.66-.19.91-.4a2.26,2.26,0,0,0,1.29,2.27c1.34.4,2.13-1.5,2.37-2.47C58.93,33.37,59.19,31.43,58.25,30.38Z"/><path class="cls-6" d="M58.63,34.61c.3-1.24.56-3.18-.38-4.23a3.27,3.27,0,0,0-1.94-.82,5.62,5.62,0,0,0-3.17.06,4.07,4.07,0,0,1,3.17,4.2c0,1.31,0,2.39,0,3.27C57.64,37.39,58.39,35.56,58.63,34.61Z"/><path class="cls-21" d="M36.32,47c-.58-.08-1.29.13-1-.66s.35-1.56.88-1.49A18.68,18.68,0,0,1,38.89,46l-.51,1.48S36.91,47.12,36.32,47Z"/><path class="cls-21" d="M36.29,46.91s-.19.3-1.48-.11c-.47-.15-1.57-.35-1.71-.56s.55-.12,1.34,0,1.57.16,1.57.16Z"/><path class="cls-21" d="M35.79,46.56A6.22,6.22,0,0,0,34.07,46a3.48,3.48,0,0,1-1.1-.13c-.32-.11-.52-.52,0-.49a9.66,9.66,0,0,1,2.28.22c.55.22,1,.44,1,.44Z"/><path class="cls-21" d="M36.07,46a6,6,0,0,0-1.71-.59,3.39,3.39,0,0,1-1.09-.16c-.33-.12-.51-.53,0-.49a9.68,9.68,0,0,1,2.27.27c.55.24,1,.47,1,.47Z"/><path class="cls-21" d="M36.7,45.74A6.43,6.43,0,0,0,35.06,45,3.23,3.23,0,0,1,34,44.7c-.31-.15-.45-.58,0-.48a9,9,0,0,1,2.23.5c.52.29,1,.56,1,.56Z"/><path class="cls-21" d="M35.51,44.71s-.52-.48.12-.48a2.94,2.94,0,0,1,1.78.86c.46.42.5.59.5.59l-.92.63Z"/><path class="cls-22" d="M37.82,47.34l.56.13L38.89,46l-.45-.21A6.12,6.12,0,0,1,37.82,47.34Z"/><path class="cls-5" d="M38.64,47.78l-.34-.07s-.2-.28,0-1.13.51-1,.51-1l.54.16Z"/><path class="cls-9" d="M61.65,39.46a4.26,4.26,0,0,0-2.19-.07s-.15.94-2.31,1.23-2.71-.15-2.71-.15a17.16,17.16,0,0,0-3.36,1.81C49.75,43.3,45.7,47,45.7,47l-6.4-1.51s-.25-.08-.61,1a2.18,2.18,0,0,0-.07,1.62s5.81,2.24,7.54,2.42c1.37.14,5.47-1.81,6.5-3a9.48,9.48,0,0,1,.26,3.22c-.51,1.27-1.35,3.26.17,4.17l.2.12,1.36-1.42-.17,2a5.72,5.72,0,0,0,5.45-.15c3.07-1.62,2.13-1.37,2.34-3a35,35,0,0,1,1.27-7.41C64.48,42.39,63.24,39.79,61.65,39.46Z"/><path class="cls-9" d="M52.41,41.56s.39.09.53-.69a3.32,3.32,0,0,0,0-1.21,4.4,4.4,0,0,0,2.47.46c1.94,0,3.8-1,3.71-1.39a5,5,0,0,0-.23-.76l1.85,1.32L60.3,41.1l-1.6,1.55L56.42,43,54,42.58Z"/><polygon class="cls-5" points="57.77 53.77 58.88 54.75 70.51 48.04 69.4 47.05 58.49 53.35 57.77 53.77"/><path class="cls-9" d="M54.6,65.85l1.24.72,1.49-.87-2,14.92s-.09.06-.87,0a1.56,1.56,0,0,1-.75-.22Z"/><path class="cls-8" d="M64.38,61.64l1.48-.86,5.65,10.47a.73.73,0,0,1-.45.55c-.63.28-.89,0-.89,0l-6.53-9.69Z"/><path class="cls-6" d="M67.46,59.85v-.46L55.84,66.11v.46l1.49-.87,6.31-3.64.74-.42,1.48-.86Z"/><polygon class="cls-6" points="55.84 66.11 67.47 59.39 70.51 48.04 58.88 54.75 55.84 66.11"/><polygon class="cls-4" points="54.85 64.67 57.77 53.77 58.88 54.75 55.84 66.11 55.84 66.56 54.6 65.85 47.67 61.85 46.94 61.43 45.47 60.58 43.89 59.67 43.89 58.34 54.85 64.67"/><path class="cls-8" d="M54.6,65.85l1.24.72,1.49-.87-.28,1.6a5.13,5.13,0,0,0-2.62.34Z"/><path class="cls-9" d="M45.47,60.58l1.47.85.73.42L40.11,73.68a.56.56,0,0,1-.46,0c-.5-.21-.6-.43-.6-.43Z"/><path class="cls-8" d="M46.94,61.43l-1.47-.85L44.78,62a4.8,4.8,0,0,1,1.75,1.64l1.14-1.78Z"/><path class="cls-16" d="M56.54,59.12,48,54.21l-.59.33s-.33.45.31,1.07,5,2.91,7,4.54a2.58,2.58,0,0,0,1.15,1.9,1.24,1.24,0,0,0,1.73-1A2.57,2.57,0,0,0,56.54,59.12Z"/><path class="cls-9" d="M56,59.46l-8.5-4.91c-.07.07-.31.47.3,1.06s5,2.91,7,4.54A2.61,2.61,0,0,0,55.82,62c.68.42,1.22.11,1.19-.68A2.57,2.57,0,0,0,56,59.46Z"/><path class="cls-23" d="M28.67,1.09,20.91,5.56c-4.39,2.54-8,8.76-8,13.83s4.3,7.8,8.69,5.27l3.61-3.16c2.14-.9,4-.4,4.91,1.21l1.18.51-.45-5.34c3.33-3,6.77-8,6.77-12.21C37.63.6,33.06-1.45,28.67,1.09Z"/><path class="cls-24" d="M29.86,1.6,22.1,6.08c-4.39,2.53-8,8.75-8,13.82s3.59,7.14,8,4.6L26.41,22c2.15-.9,4-.39,4.91,1.21l.74-4.83c3.32-3,5.77-8,5.77-12.19C37.83,1.14,34.24-.94,29.86,1.6Z"/><path class="cls-4" d="M32.89,11.56l-9.52,5.5c-.7.4-1.27.07-1.27-.73a2.82,2.82,0,0,1,1.27-2.2l9.52-5.49c.7-.4,1.27-.08,1.27.73A2.8,2.8,0,0,1,32.89,11.56Z"/><path class="cls-4" d="M29.75,14.18l-6.38,3.68a2.82,2.82,0,0,0-1.27,2.2c0,.8.57,1.13,1.27.73l6.38-3.69A2.8,2.8,0,0,0,31,14.91C31,14.11,30.45,13.78,29.75,14.18Z"/><path class="cls-4" d="M19.79,16.22s-.17.08-.17.08l-.4.23-.16.09a2.82,2.82,0,0,0-1.26,2.19c0,.8.57,1.13,1.26.73l.16-.09.4-.23.17-.1A2.87,2.87,0,0,0,20.89,17C20.89,16.29,20.41,16,19.79,16.22Z"/><path class="cls-16" d="M28.58,9.54,19.06,15c-.69.4-1.26.07-1.26-.73a2.8,2.8,0,0,1,1.26-2.19l9.52-5.5c.7-.4,1.27-.07,1.27.73A2.8,2.8,0,0,1,28.58,9.54Z"/><path class="cls-16" d="M32.94,4.12s-.16.08-.16.08l-.41.23-.16.09A2.82,2.82,0,0,0,31,6.71c0,.81.57,1.14,1.26.73l.17-.09.4-.23.16-.1A2.87,2.87,0,0,0,34,4.93C34,4.19,33.56,3.85,32.94,4.12Z"/><path class="cls-21" d="M51.15,38.34a2.64,2.64,0,0,0-.64-.92,13.36,13.36,0,0,0-.74-3.57c-.22-.41-.31-.55-.33-.13a9.84,9.84,0,0,0,.3,1.73c-.7.22,0,.33-1.38-2.06-.17-.3-.2-.36-.23.13a4.75,4.75,0,0,0,.51,1.68c.07.19.15.37.22.53-.25-.4-1.13-1.8-1.32-2s-.25-.33-.22.16a5.08,5.08,0,0,0,.73,1.6l.12.21c-.43-.52-1.1-1.31-1.26-1.48s-.3-.3-.2.18a4.91,4.91,0,0,0,.93,1.5,3.93,3.93,0,0,0,.41.52c-.46-.49-1.26-1.33-1.44-1.5s-.31-.28-.19.19a4.93,4.93,0,0,0,1,1.44,5.21,5.21,0,0,0,.75.78,4,4,0,0,0,1.25,1l.38.66Z"/><path class="cls-22" d="M51.15,38.34a3.58,3.58,0,0,0-.49-.79,1.68,1.68,0,0,1-1.12.91l.28.48Z"/><path class="cls-4" d="M49.72,39.33s-.32-.27-.19-.46A2.51,2.51,0,0,1,50.74,38a.82.82,0,0,1,.86.32l-.7.53Z"/><path class="cls-9" d="M49.53,39.44l3.21,6.49L55.37,44l-3.63-5.64s-.25-.35-1.25.15S49.53,39.44,49.53,39.44Z"/><path class="cls-22" d="M49.48,36.87s-.15,0,.1-.54.36-.69.07-.57-.52.51-.87.48-.77-.07-.45.24A2.31,2.31,0,0,0,49.48,36.87Z"/><polygon class="cls-25" points="39.48 103.42 0 80.63 0 52.43 39.48 75.22 39.48 103.42"/><polygon class="cls-5" points="42.6 73.42 3.12 50.63 0 52.43 39.48 75.22 42.6 73.42"/><polygon class="cls-6" points="39.48 103.42 42.6 101.62 42.59 73.42 39.48 75.22 39.48 103.42"/><polygon class="cls-6" points="42.59 105.22 82.07 82.43 82.07 54.23 42.59 77.02 42.59 105.22"/><polygon class="cls-5" points="39.47 75.22 78.95 52.43 82.07 54.23 42.59 77.02 39.47 75.22"/><polygon class="cls-25" points="42.59 105.22 39.47 103.42 39.47 75.22 42.59 77.03 42.59 105.22"/></g></g></g></svg>